<svg width="68" height="71" viewBox="0 0 68 71" fill="none" xmlns="http://www.w3.org/2000/svg">
<g clip-path="url(#clip0_6008_142)">
<path d="M343 94.989C343 94.9951 342.995 95 342.989 95V95C342.983 95 342.978 94.9953 342.978 94.9894C342.448 81.6509 331.469 71 318 71H61.3431C56.2796 71 52.1202 67.1673 50.6363 62.3261C44.3666 41.8724 25.3331 27.0001 2.8252 27H-1017.13C-1039.64 27 -1058.67 41.8724 -1064.94 62.3261C-1066.43 67.1673 -1070.59 71 -1075.65 71H-1540C-1553.47 71 -1564.45 81.6509 -1564.98 94.9894C-1564.98 94.9953 -1564.98 95 -1564.99 95V95C-1565 95 -1565 94.9951 -1565 94.989V10C-1565 4.47715 -1560.52 0 -1555 0H333C338.523 0 343 4.47715 343 10V94.989Z" fill="#7027E2"/>
</g>
<defs>
<clipPath id="clip0_6008_142">
<rect width="68" height="71" fill="white"/>
</clipPath>
</defs>
</svg>
