<svg width="68" height="71" viewBox="0 0 68 71" fill="none" xmlns="http://www.w3.org/2000/svg">
<g clip-path="url(#clip0_6008_142)">
<path d="M1430 94.989C1430 94.9951 1430 95 1429.99 95V95C1429.98 95 1429.98 94.9953 1429.98 94.9894C1429.45 81.6509 1418.47 71 1405 71H1148.34C1143.28 71 1139.12 67.1673 1137.64 62.3261C1131.37 41.8724 1112.33 27.0001 1089.83 27H69.8691C47.3612 27 28.3269 41.8724 22.0571 62.3261C20.5731 67.1673 16.4138 71 11.3503 71H-453C-466.469 71 -477.448 81.6509 -477.978 94.9894C-477.978 94.9953 -477.983 95 -477.989 95V95C-477.995 95 -478 94.9951 -478 94.989V10C-478 4.47715 -473.523 0 -468 0H1420C1425.52 0 1430 4.47715 1430 10V94.989Z" fill="#7027E2"/>
</g>
<defs>
<clipPath id="clip0_6008_142">
<rect width="68" height="71" fill="white"/>
</clipPath>
</defs>
</svg>
