<svg width="26" height="24" viewBox="0 0 26 24" fill="none" xmlns="http://www.w3.org/2000/svg">
<g clip-path="url(#clip0_6008_142)">
<path d="M1908 23.989C1908 23.9951 1908 24 1907.99 24C1907.98 24 1907.98 23.9953 1907.98 23.9894C1907.45 10.6509 1896.47 0 1883 0H1626.34C1621.28 0 1617.12 -3.83269 1615.64 -8.67389C1609.37 -29.1276 1590.33 -43.9999 1567.83 -44H547.869C525.361 -44 506.327 -29.1276 500.057 -8.6739C498.573 -3.8327 494.414 0 489.35 0H25C11.5314 0 0.55223 10.6509 0.0219028 23.9894C0.0216691 23.9953 0.0168353 24 0.0109534 24C0.00490401 24 0 23.9951 0 23.989V-61C0 -66.5228 4.47715 -71 10 -71H1898C1903.52 -71 1908 -66.5228 1908 -61V23.989Z" fill="#7027E2"/>
</g>
<defs>
<clipPath id="clip0_6008_142">
<rect width="26" height="24" fill="white"/>
</clipPath>
</defs>
</svg>
