<svg width="26" height="24" viewBox="0 0 26 24" fill="none" xmlns="http://www.w3.org/2000/svg">
<g clip-path="url(#clip0_6008_142)">
<path d="M26 23.989C26 23.9951 25.9951 24 25.989 24C25.9832 24 25.9783 23.9953 25.9781 23.9894C25.4478 10.6509 14.4686 0 1 0H-255.657C-260.72 0 -264.88 -3.83269 -266.364 -8.67389C-272.633 -29.1276 -291.667 -43.9999 -314.175 -44H-1334.13C-1356.64 -44 -1375.67 -29.1276 -1381.94 -8.6739C-1383.43 -3.8327 -1387.59 0 -1392.65 0H-1857C-1870.47 0 -1881.45 10.6509 -1881.98 23.9894C-1881.98 23.9953 -1881.98 24 -1881.99 24C-1882 24 -1882 23.9951 -1882 23.989V-61C-1882 -66.5228 -1877.52 -71 -1872 -71H16C21.5228 -71 26 -66.5228 26 -61V23.989Z" fill="#7027E2"/>
</g>
<defs>
<clipPath id="clip0_6008_142">
<rect width="26" height="24" fill="white"/>
</clipPath>
</defs>
</svg>
