<svg width="285" height="28" viewBox="0 0 285 28" fill="none" xmlns="http://www.w3.org/2000/svg">
<path d="M33.4375 25.6875C33.4062 25.7812 33.3438 25.8594 33.25 25.9219C33.1562 25.9844 33.0781 26.0469 33.0156 26.1094C32.9531 26.1719 32.9062 26.25 32.875 26.3437C32.8438 26.4375 32.875 26.5469 32.9688 26.6719C32.9062 26.8281 32.7031 26.9219 32.3594 26.9531C32.0156 26.9531 31.75 27.0625 31.5625 27.2812C31.4375 27.3437 31.3125 27.3437 31.1875 27.2812C31.0938 27.25 30.9844 27.2812 30.8594 27.375C30.5781 27.2187 30.3281 27.0312 30.1094 26.8125C29.9219 26.5625 29.6562 26.3906 29.3125 26.2969C29.2812 26.0781 29.1875 25.9062 29.0312 25.7812C28.875 25.6562 28.7969 25.5 28.7969 25.3125C28.8281 24.9062 28.7969 24.6875 28.7031 24.6562C28.6094 24.5937 28.5312 24.4844 28.4688 24.3281C28.4062 24.2344 28.375 24.1406 28.375 24.0469C28.375 23.9219 28.3125 23.8437 28.1875 23.8125C28.25 23.6562 28.3125 23.5 28.375 23.3437C28.4688 23.1875 28.5469 23.0312 28.6094 22.875C28.4531 22.5312 28.25 22.2031 28 21.8906C27.75 21.5781 27.625 21.2187 27.625 20.8125C27.625 20.6562 27.625 20.5156 27.625 20.3906C27.6562 20.2656 27.6719 20.125 27.6719 19.9687C27.6719 19.8437 27.6406 19.7344 27.5781 19.6406C27.5469 19.5469 27.5781 19.4375 27.6719 19.3125C27.6094 19.125 27.5312 18.9531 27.4375 18.7969C27.375 18.6094 27.3125 18.4219 27.25 18.2344C27.3438 18.2031 27.4062 18.0937 27.4375 17.9062C27.4688 17.6875 27.4688 17.4687 27.4375 17.25C27.4062 17 27.375 16.7656 27.3438 16.5469C27.3125 16.2969 27.2969 16.125 27.2969 16.0312C27.2969 15.9062 27.3125 15.7812 27.3438 15.6562C27.375 15.5312 27.3906 15.4062 27.3906 15.2812C27.5156 14.75 27.5156 14.2969 27.3906 13.9219C27.2656 13.5469 27.2031 13.2187 27.2031 12.9375C27.2031 12.5 27.2188 12.0781 27.25 11.6719C27.2812 11.2656 27.1562 10.8437 26.875 10.4062C26.4062 10.625 26.125 10.9531 26.0312 11.3906H25.5156C25.4219 11.4844 25.375 11.5625 25.375 11.625C25.375 11.6562 25.3906 11.7344 25.4219 11.8594C25.2969 11.8906 25.2188 11.9531 25.1875 12.0469C25.1562 12.1406 25.125 12.2344 25.0938 12.3281C25.0625 12.4219 24.9844 12.5625 24.8594 12.75C24.7344 12.9062 24.5938 13.0781 24.4375 13.2656C24.3125 13.4531 24.1719 13.6406 24.0156 13.8281C23.8906 14.0156 23.7969 14.1562 23.7344 14.25C23.7031 14.4375 23.6562 14.625 23.5938 14.8125C23.5625 14.9687 23.5625 15.1406 23.5938 15.3281H23.0312C22.9375 15.6719 22.8906 16 22.8906 16.3125C22.5469 17 22.2969 17.5469 22.1406 17.9531C21.9844 18.3594 21.7344 18.75 21.3906 19.125C21.4531 19.3125 21.4531 19.4375 21.3906 19.5C21.3281 19.5625 21.2969 19.6719 21.2969 19.8281C21.0469 20.0781 20.8438 20.2969 20.6875 20.4844C20.5312 20.6719 20.4219 20.9375 20.3594 21.2812C20.2031 21.3437 20.0938 21.4375 20.0312 21.5625C20 21.6562 19.9531 21.7656 19.8906 21.8906C19.8594 21.9844 19.7969 22.0781 19.7031 22.1719C19.6406 22.2656 19.5156 22.3281 19.3281 22.3594C19.4844 22.5781 19.5469 22.7812 19.5156 22.9687C19.5156 23.125 19.5625 23.2969 19.6562 23.4844C19.6562 23.6094 19.5938 23.6875 19.4688 23.7187C19.3438 23.7187 19.25 23.8125 19.1875 24C19.125 24.1562 19.0938 24.3125 19.0938 24.4687C19.125 24.625 19.125 24.7812 19.0938 24.9375C19.0312 25.0937 18.9844 25.1875 18.9531 25.2187C18.9531 25.2187 18.9375 25.2344 18.9062 25.2656C18.875 25.2969 18.8594 25.3594 18.8594 25.4531C18.8594 25.5156 18.8594 25.6719 18.8594 25.9219C18.6094 25.9844 18.5312 26.1406 18.625 26.3906C18.4688 26.3281 18.375 26.3594 18.3438 26.4844C18.3125 26.5781 18.3125 26.6875 18.3438 26.8125C18.1875 26.7812 18.0312 26.7812 17.875 26.8125C17.7188 26.8125 17.5938 26.8906 17.5 27.0469C17.375 26.9531 17.2344 26.9375 17.0781 27C16.9531 27.0312 16.8125 27.0469 16.6562 27.0469C16.4688 26.8594 16.2812 26.7812 16.0938 26.8125C15.9062 26.8437 15.6875 26.8594 15.4375 26.8594C15.2812 26.5156 15.0938 26.2344 14.875 26.0156C14.6562 25.7969 14.5156 25.4687 14.4531 25.0312C14.2969 24.875 14.1719 24.7031 14.0781 24.5156C14.0156 24.3281 13.9062 24.1562 13.75 24C13.75 23.6562 13.6875 23.3281 13.5625 23.0156C13.4375 22.6719 13.2188 22.4062 12.9062 22.2187C12.875 21.9375 12.7969 21.6875 12.6719 21.4687C12.5469 21.2187 12.4062 20.9844 12.25 20.7656C12.25 20.5469 12.2031 20.3594 12.1094 20.2031C12.0469 20.0156 11.9688 19.8594 11.875 19.7344C11.7812 19.5781 11.6875 19.4219 11.5938 19.2656C11.5 19.1094 11.4375 18.9375 11.4062 18.75C11.2812 18.6875 11.1719 18.6094 11.0781 18.5156C11.0156 18.3906 10.9062 18.2969 10.75 18.2344C10.7188 18.0781 10.6719 17.9531 10.6094 17.8594C10.5781 17.7344 10.5312 17.6094 10.4688 17.4844C10.125 17.1719 9.85938 16.8125 9.67188 16.4062C9.48438 16 9.21875 15.6562 8.875 15.375C8.90625 15.2812 8.89062 15.2031 8.82812 15.1406C8.79688 15.0781 8.76562 15 8.73438 14.9062C8.23438 14.5 7.84375 14.0156 7.5625 13.4531C7.3125 12.8594 6.98438 12.4219 6.57812 12.1406C6.26562 11.7656 6.03125 11.4687 5.875 11.25C5.75 11.0312 5.5625 10.8437 5.3125 10.6875C5.0625 10.6562 4.9375 10.7031 4.9375 10.8281C4.9375 10.9531 4.96875 11.0937 5.03125 11.25C5.03125 11.3437 5.01562 11.4375 4.98438 11.5312C4.95312 11.625 4.9375 11.7187 4.9375 11.8125C4.9375 11.9062 4.95312 12 4.98438 12.0937C5.01562 12.1562 5.03125 12.2344 5.03125 12.3281C5.03125 12.8594 4.98438 13.3906 4.89062 13.9219C4.82812 14.4219 4.79688 14.9375 4.79688 15.4687C4.79688 15.5312 4.8125 15.6094 4.84375 15.7031C4.875 15.7969 4.89062 15.8906 4.89062 15.9844C4.89062 16.1094 4.85938 16.2187 4.79688 16.3125C4.76562 16.4062 4.75 16.5312 4.75 16.6875C4.75 16.9687 4.76562 17.2656 4.79688 17.5781C4.85938 17.8594 4.90625 18.1406 4.9375 18.4219C5.0625 18.4844 5.14062 18.5625 5.17188 18.6562C5.23438 18.75 5.29688 18.8437 5.35938 18.9375C5.32812 19.1562 5.3125 19.375 5.3125 19.5937C5.34375 19.8125 5.40625 20.0156 5.5 20.2031C5.4375 20.3281 5.375 20.4375 5.3125 20.5312C5.25 20.625 5.28125 20.7344 5.40625 20.8594C5.40625 21.0156 5.45312 21.125 5.54688 21.1875C5.64062 21.25 5.73438 21.3125 5.82812 21.375C5.92188 21.4062 6 21.4531 6.0625 21.5156C6.15625 21.5781 6.20312 21.6875 6.20312 21.8437C6.20312 22.0312 6.125 22.1875 5.96875 22.3125C5.84375 22.4062 5.71875 22.5156 5.59375 22.6406C5.8125 23.1406 5.9375 23.6406 5.96875 24.1406C5.875 24.2031 5.78125 24.2656 5.6875 24.3281C5.59375 24.3594 5.51562 24.4375 5.45312 24.5625C5.14062 24.9062 5.01562 25.1094 5.07812 25.1719C5.17188 25.2031 5.20312 25.2656 5.17188 25.3594C4.82812 25.5156 4.53125 25.7344 4.28125 26.0156C4.03125 26.2656 3.71875 26.4219 3.34375 26.4844C3.125 26.2969 2.92188 26.1562 2.73438 26.0625C2.57812 25.9687 2.34375 25.9531 2.03125 26.0156C1.90625 25.9219 1.82812 25.8281 1.79688 25.7344C1.76562 25.6094 1.65625 25.5469 1.46875 25.5469C1.46875 25.2969 1.40625 25.125 1.28125 25.0312C1.1875 24.9375 1.09375 24.7969 1 24.6094C1.0625 24.2969 1.04688 24 0.953125 23.7187C0.890625 23.4062 0.859375 23.0937 0.859375 22.7812C0.859375 22.4687 0.875 22.1719 0.90625 21.8906C0.96875 21.5781 1 21.2656 1 20.9531C1 20.7969 0.96875 20.6562 0.90625 20.5312C0.875 20.4062 0.859375 20.2656 0.859375 20.1094C0.859375 20.0156 0.875 19.9219 0.90625 19.8281C0.96875 19.7344 1 19.6406 1 19.5469C1 19.4531 0.96875 19.375 0.90625 19.3125C0.84375 19.2187 0.796875 19.125 0.765625 19.0312C0.703125 18.8437 0.65625 18.6562 0.625 18.4687C0.625 18.2812 0.625 18.0937 0.625 17.9062C0.625 17.75 0.65625 17.6094 0.71875 17.4844C0.8125 17.3594 0.859375 17.2187 0.859375 17.0625C0.859375 16.7812 0.828125 16.5 0.765625 16.2187C0.734375 15.9062 0.71875 15.5937 0.71875 15.2812C0.71875 15.0625 0.765625 14.8906 0.859375 14.7656C0.953125 14.6094 1 14.4531 1 14.2969C1 14.0469 0.96875 13.7969 0.90625 13.5469C0.875 13.2969 0.828125 13.0469 0.765625 12.7969C0.828125 12.2969 0.859375 11.9844 0.859375 11.8594C0.859375 11.7031 0.875 11.5937 0.90625 11.5312C0.96875 11.4375 1.01562 11.3594 1.04688 11.2969C1.10938 11.2344 1.14062 11.125 1.14062 10.9687C1.14062 10.8125 1.10938 10.6562 1.04688 10.5C1.01562 10.3125 1 10.1406 1 9.98437C1 9.60937 1.03125 9.25 1.09375 8.90625C1.1875 8.53125 1.23438 8.15625 1.23438 7.78125C1.23438 7.625 1.20312 7.5 1.14062 7.40625C1.07812 7.3125 1.03125 7.20312 1 7.07812C1.09375 7.01562 1.125 6.92187 1.09375 6.79687C1.0625 6.64062 1.04688 6.51562 1.04688 6.42187C1.10938 6.01562 1.09375 5.8125 1 5.8125C0.90625 5.78125 0.828125 5.73437 0.765625 5.67187C0.828125 5.35937 0.921875 5.125 1.04688 4.96875C1.17188 4.78125 1.25 4.46875 1.28125 4.03125C1.28125 3.8125 1.26562 3.59375 1.23438 3.375C1.23438 3.125 1.29688 2.89062 1.42188 2.67187C1.70312 2.60937 1.89062 2.46875 1.98438 2.25C2.07812 2 2.15625 1.75 2.21875 1.5C2.4375 1.53125 2.625 1.4375 2.78125 1.21875C2.90625 1.25 3.04688 1.25 3.20312 1.21875C3.39062 1.15625 3.59375 1.10937 3.8125 1.07812C4.03125 1.04687 4.28125 1.0625 4.5625 1.125C4.84375 1.15625 5.15625 1.26562 5.5 1.45312V2.01562C5.78125 2.23437 5.95312 2.54687 6.01562 2.95312C6.10938 3.32812 6.21875 3.67187 6.34375 3.98437C6.40625 4.14062 6.5 4.35937 6.625 4.64062C6.78125 4.92187 6.9375 5.20312 7.09375 5.48437C7.28125 5.76562 7.46875 6.03125 7.65625 6.28125C7.84375 6.5 8.01562 6.64062 8.17188 6.70312C8.17188 6.85937 8.20312 7.01562 8.26562 7.17187C8.35938 7.29687 8.40625 7.4375 8.40625 7.59375C8.5 7.71875 8.57812 7.85937 8.64062 8.01562C8.70312 8.14062 8.8125 8.25 8.96875 8.34375C8.96875 8.65625 9.04688 8.89062 9.20312 9.04687C9.39062 9.20312 9.51562 9.42187 9.57812 9.70312C9.67188 9.76562 9.76562 9.8125 9.85938 9.84375C9.98438 9.84375 10.0938 9.875 10.1875 9.9375C10.3125 10.25 10.5 10.5 10.75 10.6875C11 10.875 11.2344 11.0937 11.4531 11.3437C11.6719 11.625 11.875 11.9219 12.0625 12.2344C12.25 12.5156 12.5 12.75 12.8125 12.9375C12.8125 13.1875 12.8438 13.4219 12.9062 13.6406C13 13.8281 13.1719 13.9531 13.4219 14.0156C13.3594 14.2344 13.4062 14.3906 13.5625 14.4844C13.75 14.5469 13.8906 14.6562 13.9844 14.8125C13.9219 15.0312 13.9375 15.125 14.0312 15.0937C14.125 15.0625 14.1719 15.125 14.1719 15.2812C14.4219 15.5312 14.5469 15.7187 14.5469 15.8437C14.5781 15.9375 14.625 16.0156 14.6875 16.0781C14.8125 16.2344 14.9219 16.3906 15.0156 16.5469C15.1094 16.6719 15.2031 16.8125 15.2969 16.9687C15.4219 17.0937 15.5312 17.2344 15.625 17.3906C15.7188 17.5156 15.7812 17.5781 15.8125 17.5781C15.75 17.9531 15.7969 18.2656 15.9531 18.5156C16.1094 18.7656 16.2969 18.9219 16.5156 18.9844C16.7344 19.0156 16.9375 18.9219 17.125 18.7031C17.3438 18.4531 17.4844 18.0156 17.5469 17.3906C17.8906 17.2344 18.0781 17 18.1094 16.6875C18.1406 16.375 18.1875 16.0625 18.25 15.75C18.4062 15.625 18.5156 15.4844 18.5781 15.3281C18.6719 15.1719 18.7969 15.0469 18.9531 14.9531C19.0156 14.7969 19.0312 14.7031 19 14.6719C18.9688 14.6406 18.9219 14.5625 18.8594 14.4375C18.9844 14.4062 19.0469 14.3437 19.0469 14.25C19.0781 14.125 19.0938 14.0156 19.0938 13.9219C19.2812 13.8906 19.3594 13.8125 19.3281 13.6875C19.3281 13.5625 19.4531 13.4844 19.7031 13.4531C19.6406 13.2031 19.6406 13.0469 19.7031 12.9844C19.7656 12.8906 19.7969 12.7344 19.7969 12.5156C19.9219 12.4531 19.9688 12.4062 19.9375 12.375C19.9375 12.3125 20.0469 12.3125 20.2656 12.375C20.2344 12.2812 20.2188 12.1562 20.2188 12C20.25 11.8437 20.2188 11.7344 20.125 11.6719C20.1875 11.6094 20.2812 11.5937 20.4062 11.625C20.5312 11.625 20.625 11.625 20.6875 11.625C20.7188 11.2812 20.8281 11.0156 21.0156 10.8281C21.2344 10.6094 21.3594 10.3281 21.3906 9.98437C21.8906 9.73437 22.2188 9.46875 22.375 9.1875C22.5312 8.875 22.75 8.625 23.0312 8.4375C23 8.25 23 8.10937 23.0312 8.01562C23.0938 7.89062 23.1562 7.79687 23.2188 7.73437C23.2812 7.64062 23.3438 7.54687 23.4062 7.45312C23.4688 7.35937 23.5 7.23437 23.5 7.07812C23.75 7.01562 23.9062 6.875 23.9688 6.65625C24.0312 6.40625 24.1875 6.21875 24.4375 6.09375C24.375 5.90625 24.4062 5.625 24.5312 5.25C24.6562 4.84375 24.8438 4.64062 25.0938 4.64062C25.125 4.20312 25.2344 3.85937 25.4219 3.60937C25.6094 3.35937 25.7344 3.04687 25.7969 2.67187C25.9844 2.67187 26.1719 2.625 26.3594 2.53125C26.4219 2.28125 26.5469 2.10937 26.7344 2.01562C26.9219 1.89062 27.0625 1.71875 27.1562 1.5C27.6875 1.4375 28.0625 1.3125 28.2812 1.125C28.5 0.90625 28.7656 0.875 29.0781 1.03125C29.2031 1.1875 29.2812 1.29687 29.3125 1.35937C29.3438 1.42187 29.3281 1.54687 29.2656 1.73437H29.875C29.9375 1.89062 29.9688 2.01562 29.9688 2.10937C30 2.17187 30 2.28125 29.9688 2.4375C30.0312 2.5625 30.1094 2.65625 30.2031 2.71875C30.3281 2.78125 30.4062 2.84375 30.4375 2.90625C30.375 3.25 30.3906 3.60937 30.4844 3.98437C30.5781 4.35937 30.5469 4.71875 30.3906 5.0625C30.6094 5.125 30.6875 5.28125 30.625 5.53125C30.5938 5.78125 30.6719 5.96875 30.8594 6.09375C30.7969 6.1875 30.75 6.28125 30.7188 6.375C30.6875 6.4375 30.6562 6.51562 30.625 6.60937C30.7812 6.64062 30.8594 6.6875 30.8594 6.75C30.8594 6.78125 30.8438 6.84375 30.8125 6.9375C30.8125 7 30.8125 7.09375 30.8125 7.21875C30.8438 7.34375 30.9531 7.51562 31.1406 7.73437C31.1406 7.79687 31.0938 7.84375 31 7.875C30.9375 7.90625 30.9062 8 30.9062 8.15625C30.9688 8.21875 31.0156 8.29687 31.0469 8.39062C31.1094 8.48437 31.1719 8.5625 31.2344 8.625C31.0781 8.96875 31.0625 9.23437 31.1875 9.42187C31.3125 9.60937 31.375 9.8125 31.375 10.0312C31.2812 10.4687 31.2656 10.75 31.3281 10.875C31.4219 11 31.3438 11.1094 31.0938 11.2031C31.1875 11.5156 31.2656 11.8437 31.3281 12.1875C31.4219 12.5 31.4688 12.8281 31.4688 13.1719C31.4688 13.3281 31.4531 13.5 31.4219 13.6875C31.3906 13.8437 31.375 14 31.375 14.1562C31.375 14.3125 31.4062 14.4375 31.4688 14.5312C31.5625 14.625 31.6094 14.7031 31.6094 14.7656C31.6094 14.8594 31.5781 14.9219 31.5156 14.9531C31.4531 14.9844 31.4531 15.0781 31.5156 15.2344C31.5156 15.5781 31.4531 15.8906 31.3281 16.1719C31.2344 16.4219 31.3125 16.6875 31.5625 16.9687C31.4688 17.1875 31.4531 17.4062 31.5156 17.625C31.5781 17.8437 31.6094 18.0781 31.6094 18.3281C31.7031 18.3906 31.7656 18.4687 31.7969 18.5625C31.8594 18.625 31.9219 18.6875 31.9844 18.75C31.8594 18.9375 31.8438 19.1094 31.9375 19.2656C32.0312 19.4219 32.0781 19.5937 32.0781 19.7812C31.9844 19.8437 31.9375 19.9687 31.9375 20.1562C31.9688 20.3125 32.0156 20.4844 32.0781 20.6719C32.1719 20.8594 32.2656 21.0469 32.3594 21.2344C32.4531 21.4219 32.5156 21.5625 32.5469 21.6562C32.5156 22.0937 32.5938 22.3594 32.7812 22.4531C32.8125 22.5781 32.8281 22.7031 32.8281 22.8281C32.8281 22.9531 32.9062 23.0469 33.0625 23.1094C33 23.3281 33.0156 23.5 33.1094 23.625C33.2031 23.75 33.3125 23.8906 33.4375 24.0469C33.4688 24.5781 33.4375 24.9375 33.3438 25.125C33.25 25.2812 33.2812 25.4687 33.4375 25.6875ZM46.3281 22.1719C46.6094 22.0156 46.875 21.9062 47.125 21.8437C47.375 21.7812 47.6562 21.8437 47.9688 22.0312C48.125 21.9062 48.2344 21.8125 48.2969 21.75C48.3594 21.6562 48.4688 21.5781 48.625 21.5156C48.7812 21.5469 48.9531 21.5781 49.1406 21.6094C49.3281 21.6094 49.5156 21.6094 49.7031 21.6094C49.9531 21.6094 50.2031 21.5469 50.4531 21.4219C50.7031 21.2969 50.9688 21.3125 51.25 21.4687C51.6562 21.2187 52.125 21 52.6562 20.8125C53.1875 20.5937 53.5781 20.2812 53.8281 19.875C53.8906 19.25 54 18.625 54.1562 18C54.3125 17.3437 54.2656 16.7031 54.0156 16.0781C54.2969 15.5469 54.4062 15.0625 54.3438 14.625C54.2812 14.1562 54.25 13.6562 54.25 13.125C54.25 12.9062 54.2656 12.7031 54.2969 12.5156C54.3594 12.2969 54.3906 12.0781 54.3906 11.8594C54.3906 11.4219 54.3125 11.0156 54.1562 10.6406C54 10.2656 53.9219 9.85937 53.9219 9.42187C53.9219 9.29687 53.9375 9.1875 53.9688 9.09375C54 9 54.0312 8.89062 54.0625 8.76562C54.0625 8.73437 54.0156 8.67187 53.9219 8.57812C53.8594 8.45312 53.8281 8.32812 53.8281 8.20312C53.8281 8.07812 53.8438 7.98437 53.875 7.92187C53.9062 7.82812 53.9219 7.71875 53.9219 7.59375C53.9531 7.4375 53.9375 7.29687 53.875 7.17187C53.8438 7.01562 53.8281 6.85937 53.8281 6.70312C53.8281 6.42187 53.8906 6.15625 54.0156 5.90625C54.1406 5.625 54.1875 5.35937 54.1562 5.10937C54.1562 4.95312 54.1562 4.82812 54.1562 4.73437C54.1562 4.60937 54.1875 4.46875 54.25 4.3125C54.0938 3.96875 53.9688 3.75 53.875 3.65625C53.8125 3.5625 53.7969 3.29687 53.8281 2.85937C54.0781 2.79687 54.2656 2.76562 54.3906 2.76562C54.6406 2.60937 54.8594 2.5 55.0469 2.4375C55.3906 2.21875 55.6094 2.125 55.7031 2.15625C55.7969 2.15625 55.875 2.15625 55.9375 2.15625C56.0312 2.125 56.1094 2.07812 56.1719 2.01562C56.2656 1.92187 56.4062 1.75 56.5938 1.5C56.625 1.65625 56.6406 1.79687 56.6406 1.92187C56.6719 2.04687 56.7188 2.17187 56.7812 2.29687C56.9062 2.35937 57 2.42187 57.0625 2.48437C57.1562 2.54687 57.2344 2.65625 57.2969 2.8125C57.5156 2.90625 57.7031 3.14062 57.8594 3.51562C58.0156 3.89062 58.1406 4.3125 58.2344 4.78125C58.3281 5.25 58.3906 5.71875 58.4219 6.1875C58.4531 6.625 58.4688 6.95312 58.4688 7.17187C58.4688 7.42187 58.4062 7.65625 58.2812 7.875C58.1562 8.09375 58.0938 8.32812 58.0938 8.57812C58.2188 8.70312 58.2656 8.8125 58.2344 8.90625C58.2031 8.96875 58.1562 9.0625 58.0938 9.1875C58.25 9.46875 58.3281 9.73437 58.3281 9.98437C58.3281 10.2344 58.3125 10.4844 58.2812 10.7344C58.2812 10.9844 58.2812 11.25 58.2812 11.5312C58.3125 11.7812 58.4219 12.0625 58.6094 12.375C58.4844 12.5312 58.4219 12.7187 58.4219 12.9375C58.4219 13.0625 58.4219 13.1719 58.4219 13.2656C58.4531 13.3594 58.4688 13.4687 58.4688 13.5937C58.4688 13.8437 58.4375 14.0781 58.375 14.2969C58.3438 14.5156 58.3281 14.75 58.3281 15C58.3281 15.2187 58.375 15.4219 58.4688 15.6094C58.5625 15.7969 58.6406 15.9844 58.7031 16.1719C58.6406 16.4219 58.5625 16.6094 58.4688 16.7344C58.375 16.8594 58.2969 17 58.2344 17.1562C58.1094 17.5 58.0469 17.8594 58.0469 18.2344C58.0469 18.5781 58.0469 18.9375 58.0469 19.3125C58.0469 19.6875 58.0156 20.0625 57.9531 20.4375C57.9219 20.7812 57.8125 21.1094 57.625 21.4219C57.4688 21.6719 57.3281 21.875 57.2031 22.0312C57.1094 22.1875 57.0781 22.4375 57.1094 22.7812C56.3281 23.3125 55.6562 24.0156 55.0938 24.8906C54.6562 24.9531 54.2656 25.0781 53.9219 25.2656C53.5781 25.4531 53.2031 25.625 52.7969 25.7812C52.5156 25.9062 52.2188 26 51.9062 26.0625C51.625 26.0937 51.3438 26.1719 51.0625 26.2969C50.9062 26.1094 50.7656 26.0469 50.6406 26.1094C50.5156 26.1406 50.3281 26.1562 50.0781 26.1562C49.9219 26.0937 49.7969 26.0937 49.7031 26.1562C49.6406 26.1875 49.5469 26.2344 49.4219 26.2969C49.3281 26.3281 49.1875 26.375 49 26.4375C48.8438 26.4687 48.6094 26.4844 48.2969 26.4844C48.2031 26.4844 48.125 26.5312 48.0625 26.625C48 26.6875 47.9375 26.75 47.875 26.8125L47.4062 26.5312C47.0938 26.6875 46.7812 26.7812 46.4688 26.8125C46.1875 26.8125 45.8906 26.7969 45.5781 26.7656C45.2969 26.7031 45 26.6562 44.6875 26.625C44.4062 26.5625 44.1094 26.5625 43.7969 26.625C43.4219 26.5 43.1719 26.375 43.0469 26.25C42.9219 26.0937 42.6562 26.0312 42.25 26.0625C42.1562 25.9687 42.0156 25.8437 41.8281 25.6875C41.6719 25.5312 41.4844 25.375 41.2656 25.2187C41.0469 25.0312 40.8438 24.875 40.6562 24.75C40.4688 24.5937 40.3125 24.4844 40.1875 24.4219C39.75 24.1719 39.4219 23.8437 39.2031 23.4375C38.9844 23 38.7656 22.5625 38.5469 22.125C38.2656 21.7187 38.125 21.3281 38.125 20.9531C38.1562 20.5469 38.0938 20.1719 37.9375 19.8281C37.9062 19.7344 37.875 19.6406 37.8438 19.5469C37.8125 19.4531 37.7969 19.3594 37.7969 19.2656C37.7969 19.1094 37.8125 18.9687 37.8438 18.8437C37.9062 18.6875 37.9375 18.5312 37.9375 18.375C37.9375 18.3125 37.8906 18.2187 37.7969 18.0937C37.7344 17.9375 37.7031 17.7812 37.7031 17.625C37.7031 17.5312 37.7188 17.4531 37.75 17.3906C37.7812 17.2969 37.8125 17.2187 37.8438 17.1562C37.8438 17 37.7656 16.8125 37.6094 16.5937C37.4531 16.3437 37.375 16.0937 37.375 15.8437C37.375 15.6875 37.3906 15.5469 37.4219 15.4219C37.4531 15.2969 37.4688 15.1562 37.4688 15C37.5 14.8437 37.4688 14.6719 37.375 14.4844C37.3125 14.2969 37.2812 14.0937 37.2812 13.875C37.2812 13.75 37.3125 13.5625 37.375 13.3125C37.2812 13.1875 37.2344 13.0312 37.2344 12.8437C37.3281 12.5625 37.3438 12.3437 37.2812 12.1875C37.2188 12.0312 37.1562 11.875 37.0938 11.7187C37.0625 11.5625 37.0469 11.3906 37.0469 11.2031C37.0469 11.0156 37.1094 10.7969 37.2344 10.5469C37.0781 10.1406 37.0469 9.76562 37.1406 9.42187C37.2344 9.07812 37.2812 8.70312 37.2812 8.29687C37.2812 8.17187 37.25 8.0625 37.1875 7.96875C37.1562 7.875 37.1406 7.76562 37.1406 7.64062C37.1406 7.29687 37.1719 6.96875 37.2344 6.65625C37.2969 6.34375 37.3438 6.01562 37.375 5.67187C37.4062 5.51562 37.4219 5.35937 37.4219 5.20312C37.4219 5.01562 37.4219 4.84375 37.4219 4.6875C37.4531 4.09375 37.5781 3.5 37.7969 2.90625C38.0469 2.3125 38.5312 2.01562 39.25 2.01562C39.4375 2.01562 39.6562 2.04687 39.9062 2.10937C40.0312 2.26562 40.1406 2.35937 40.2344 2.39062C40.3594 2.42187 40.4688 2.48437 40.5625 2.57812C40.8125 2.82812 40.9688 3.09375 41.0312 3.375C41.0938 3.625 41.1562 3.90625 41.2188 4.21875C41.25 4.3125 41.2812 4.40625 41.3125 4.5C41.3438 4.5625 41.3594 4.64062 41.3594 4.73437C41.3594 5.01562 41.2969 5.28125 41.1719 5.53125C41.0469 5.78125 40.9844 6.03125 40.9844 6.28125C40.9844 6.53125 41 6.76562 41.0312 6.98437C41.0938 7.17187 41.125 7.39062 41.125 7.64062C41.125 8.07812 41.0938 8.5 41.0312 8.90625C41 9.3125 40.9844 9.73437 40.9844 10.1719C40.9844 10.4219 41.0312 10.6406 41.125 10.8281C41.2188 10.9844 41.25 11.1875 41.2188 11.4375C41.25 11.6562 41.2344 11.8281 41.1719 11.9531C41.1406 12.0781 41.125 12.2187 41.125 12.375C41.0938 12.5312 41.1094 12.7344 41.1719 12.9844C41.2656 13.2031 41.3125 13.4844 41.3125 13.8281C41.375 13.9219 41.4219 14 41.4531 14.0625C41.5156 14.125 41.5469 14.2344 41.5469 14.3906C41.5469 14.5156 41.5312 14.6406 41.5 14.7656C41.4688 14.8594 41.4531 14.9687 41.4531 15.0937C41.4219 15.625 41.4688 16.1562 41.5938 16.6875C41.7188 17.1875 41.7812 17.7031 41.7812 18.2344C41.7812 18.3906 41.875 18.5781 42.0625 18.7969C42.2812 18.9844 42.3125 19.25 42.1562 19.5937C42.4375 19.6875 42.5781 19.8437 42.5781 20.0625C42.5781 20.2812 42.6562 20.4219 42.8125 20.4844C43.25 20.9844 43.5312 21.3125 43.6562 21.4687C43.7812 21.625 43.9062 21.7656 44.0312 21.8906C44.1875 21.9844 44.375 22.0625 44.5938 22.125C44.8438 22.1562 45.2188 22.1719 45.7188 22.1719C45.8438 22.1094 45.9375 22.0781 46 22.0781C46.0938 22.0469 46.2031 22.0781 46.3281 22.1719ZM82.9844 16.7812C82.8281 17.4687 82.7812 18.1562 82.8438 18.8437C82.9375 19.5312 82.9062 20.2031 82.75 20.8594C82.6875 21.2656 82.5312 21.6406 82.2812 21.9844C82.0625 22.3281 81.9844 22.7187 82.0469 23.1562C81.9531 23.1875 81.8281 23.2656 81.6719 23.3906C81.5469 23.5156 81.4062 23.6562 81.25 23.8125C81.125 23.9687 81 24.125 80.875 24.2812C80.7812 24.4062 80.7188 24.5156 80.6875 24.6094C80.2188 24.9844 79.8125 25.3125 79.4688 25.5937C79.1562 25.875 78.8438 26.1719 78.5312 26.4844C78.2812 26.4531 78.0312 26.4531 77.7812 26.4844C77.5625 26.5156 77.375 26.6562 77.2188 26.9062C76.9375 26.8437 76.6562 26.8594 76.375 26.9531C76.125 27.0156 75.8438 27.0469 75.5312 27.0469C75.4062 27.0469 75.2969 27.0156 75.2031 26.9531C75.1094 26.8594 74.9844 26.8125 74.8281 26.8125C74.7344 26.8125 74.6406 26.8437 74.5469 26.9062C74.4531 26.9375 74.3594 26.9531 74.2656 26.9531C74.1094 26.9531 73.9375 26.9375 73.75 26.9062C73.5625 26.875 73.3906 26.8594 73.2344 26.8594C73.1719 26.8594 73.0469 26.8906 72.8594 26.9531C72.6719 27.0156 72.4688 27.0781 72.25 27.1406C72.0625 27.2344 71.875 27.3281 71.6875 27.4219C71.5312 27.5156 71.4375 27.5781 71.4062 27.6094C71.0312 27.4531 70.6719 27.2969 70.3281 27.1406C69.9844 26.9844 69.6094 26.9531 69.2031 27.0469C68.8281 26.7031 68.4375 26.5156 68.0312 26.4844C67.6562 26.4531 67.25 26.4062 66.8125 26.3437C66.6875 26.3437 66.6094 26.2969 66.5781 26.2031C66.5781 26.0781 66.5781 25.9687 66.5781 25.875C66.1406 25.9375 65.7969 25.9531 65.5469 25.9219C65.2969 25.8594 65.0781 25.7656 64.8906 25.6406C64.7344 25.4844 64.5625 25.3125 64.375 25.125C64.2188 24.9375 64 24.75 63.7188 24.5625C63.7812 24.375 63.7812 24.2187 63.7188 24.0937C63.6875 23.9375 63.625 23.7969 63.5312 23.6719C63.4375 23.5156 63.3438 23.375 63.25 23.25C63.1875 23.0937 63.1719 22.8906 63.2031 22.6406C62.9844 22.2344 62.6406 21.9062 62.1719 21.6562C62.1406 21.5 62.0938 21.375 62.0312 21.2812C61.9688 21.1875 61.9375 21.0312 61.9375 20.8125C61.9375 20.625 61.875 20.5156 61.75 20.4844C61.625 20.4219 61.5625 20.3437 61.5625 20.25C61.7188 19.9687 61.9062 19.7344 62.125 19.5469C62.375 19.3594 62.5625 19.125 62.6875 18.8437C62.9375 18.9375 63.1094 18.9687 63.2031 18.9375C63.2969 18.875 63.4688 18.9375 63.7188 19.125C63.7812 19.1875 63.8906 19.2656 64.0469 19.3594C64.2344 19.4531 64.4375 19.5625 64.6562 19.6875C64.875 19.8125 65.0781 19.9219 65.2656 20.0156C65.4531 20.1094 65.5781 20.1719 65.6406 20.2031C65.7031 20.5781 65.8438 20.8594 66.0625 21.0469C66.3125 21.2344 66.5 21.5 66.625 21.8437C66.7812 21.9062 66.9062 21.9687 67 22.0312C67.0938 22.0625 67.25 22.0469 67.4688 21.9844C67.5312 22.1094 67.625 22.2031 67.75 22.2656C67.875 22.3281 67.9688 22.4219 68.0312 22.5469C68.5 22.4844 68.8594 22.5156 69.1094 22.6406C69.3594 22.7656 69.6875 22.8437 70.0938 22.875C70.1562 22.9687 70.2188 23.0625 70.2812 23.1562C70.3438 23.2187 70.4062 23.2812 70.4688 23.3437C70.9062 23.3125 71.375 23.3125 71.875 23.3437C72.4062 23.375 72.875 23.2812 73.2812 23.0625C73.4375 23.2187 73.5938 23.2656 73.75 23.2031C73.9062 23.1406 74.0625 23.1094 74.2188 23.1094C74.375 23.1094 74.5156 23.1562 74.6406 23.25C74.7969 23.3125 74.9531 23.3437 75.1094 23.3437C75.2656 23.3437 75.4062 23.3281 75.5312 23.2969C75.6875 23.2656 75.8438 23.25 76 23.25C76.1875 23.25 76.2812 23.1719 76.2812 23.0156C76.3125 22.8594 76.3906 22.7812 76.5156 22.7812C76.7656 22.7812 77.0156 22.6719 77.2656 22.4531C77.5469 22.2344 77.7812 22.0469 77.9688 21.8906C78.125 21.8906 78.2188 21.8437 78.25 21.75C78.3125 21.625 78.4531 21.5312 78.6719 21.4687C79.0156 21.125 79.1875 20.75 79.1875 20.3437C79.2188 19.9375 79.1406 19.5312 78.9531 19.125C78.9531 18.9687 79 18.8281 79.0938 18.7031C79.2188 18.5469 79.2812 18.3906 79.2812 18.2344C79.2812 17.9219 79.1719 17.6094 78.9531 17.2969C78.7344 16.9844 78.5469 16.6875 78.3906 16.4062C78.3281 16.3125 78.2656 16.2656 78.2031 16.2656C78.1406 16.2344 78.0625 16.2031 77.9688 16.1719C77.9062 16.0156 77.8438 15.9375 77.7812 15.9375C77.75 15.9062 77.6562 15.875 77.5 15.8437C77.4062 15.75 77.2656 15.6406 77.0781 15.5156C76.8906 15.3906 76.7344 15.3281 76.6094 15.3281C76.1406 15.3281 75.8906 15.2812 75.8594 15.1875C75.8594 15.0937 75.6406 15.0469 75.2031 15.0469C74.8281 15.0469 74.4531 15.125 74.0781 15.2812C73.9844 15.2187 73.8438 15.1562 73.6562 15.0937C73.4688 15.0312 73.2656 15 73.0469 15C72.8594 14.9687 72.6719 14.9687 72.4844 15C72.3281 15.0312 72.2031 15.0937 72.1094 15.1875C72.0469 15.125 71.9219 15.0469 71.7344 14.9531C71.5469 14.8281 71.4219 14.7656 71.3594 14.7656C70.3906 14.7656 69.5 14.6562 68.6875 14.4375C67.9062 14.1875 67.1094 14.0625 66.2969 14.0625C65.8906 13.875 65.6406 13.75 65.5469 13.6875C65.4531 13.625 65.3125 13.5937 65.125 13.5937C64.9688 13.4062 64.8281 13.2344 64.7031 13.0781C64.6094 12.8906 64.4688 12.7344 64.2812 12.6094C64.2812 12.3281 64.2188 12.0781 64.0938 11.8594C64 11.6406 63.875 11.4375 63.7188 11.25C63.5938 11.0625 63.4688 10.875 63.3438 10.6875C63.25 10.4687 63.2031 10.2187 63.2031 9.9375C62.9844 9.5625 62.75 9.25 62.5 9C62.4062 8.34375 62.4062 7.60937 62.5 6.79687C62.5938 5.95312 62.9062 5.29687 63.4375 4.82812V4.07812C63.75 4.07812 64 4.03125 64.1875 3.9375C64.4062 3.8125 64.5938 3.67187 64.75 3.51562C64.9375 3.35937 65.1094 3.20312 65.2656 3.04687C65.4531 2.89062 65.6719 2.76562 65.9219 2.67187C66.0781 2.60937 66.1875 2.51562 66.25 2.39062C66.3125 2.26562 66.375 2.125 66.4375 1.96875C67.125 2.03125 67.8125 1.96875 68.5 1.78125C69.1875 1.5625 69.875 1.39062 70.5625 1.26562C70.7188 1.23437 70.8438 1.15625 70.9375 1.03125C71.0312 0.90625 71.1406 0.796875 71.2656 0.703125C71.4844 0.734375 71.6719 0.796875 71.8281 0.890625C72.0156 0.953125 72.2031 1 72.3906 1.03125C72.5469 1.09375 72.6875 1.10937 72.8125 1.07812C72.9375 1.01562 73.0781 0.984375 73.2344 0.984375C73.3906 0.984375 73.5625 1.07812 73.75 1.26562C74.25 1.23437 74.625 1.3125 74.875 1.5C75.125 1.6875 75.375 1.76562 75.625 1.73437C75.8125 1.98437 76.0625 2.17187 76.375 2.29687C76.6875 2.42187 77 2.48437 77.3125 2.48437C77.3438 2.64062 77.4219 2.75 77.5469 2.8125C77.6719 2.875 77.75 2.98437 77.7812 3.14062C78.1875 3.20312 78.4844 3.375 78.6719 3.65625C78.8906 3.90625 79.1875 4.07812 79.5625 4.17187C79.625 4.32812 79.6875 4.45312 79.75 4.54687C79.8438 4.60937 79.9219 4.71875 79.9844 4.875C80.2031 4.84375 80.3281 4.85937 80.3594 4.92187C80.4219 4.98437 80.5312 5.04687 80.6875 5.10937C80.9062 5.54687 81.0938 6.04687 81.25 6.60937C81.0938 6.85937 80.9531 7.125 80.8281 7.40625C80.7031 7.65625 80.5156 7.85937 80.2656 8.01562C79.4531 8.01562 78.7812 7.85937 78.25 7.54687C77.7188 7.23437 77.1875 6.78125 76.6562 6.1875C76.5 6.125 76.2969 6.09375 76.0469 6.09375C75.7969 6.0625 75.625 6 75.5312 5.90625C75.2188 5.625 74.9844 5.5 74.8281 5.53125C74.7031 5.53125 74.5625 5.5 74.4062 5.4375C74.0625 5.375 73.7188 5.26562 73.375 5.10937C73.0312 4.95312 72.6719 4.875 72.2969 4.875C72.1094 4.875 71.9375 4.90625 71.7812 4.96875C71.6562 5.03125 71.5156 5.07812 71.3594 5.10937C71.2031 5.14062 71.0625 5.14062 70.9375 5.10937C70.8438 5.07812 70.7188 5.0625 70.5625 5.0625C70.3125 5.0625 70.1406 5.10937 70.0469 5.20312C69.9844 5.29687 69.9219 5.34375 69.8594 5.34375C69.4531 5.34375 69.1094 5.40625 68.8281 5.53125C68.5781 5.65625 68.3594 5.75 68.1719 5.8125C68.0469 5.875 67.9375 5.95312 67.8438 6.04687C67.75 6.10937 67.6875 6.21875 67.6562 6.375C67.3125 6.4375 67.0781 6.57812 66.9531 6.79687C66.8281 6.98437 66.6406 7.125 66.3906 7.21875C66.2969 7.375 66.3281 7.53125 66.4844 7.6875C66.3594 7.875 66.3281 8.03125 66.3906 8.15625C66.4531 8.25 66.5312 8.35937 66.625 8.48437C66.75 8.57812 66.875 8.70312 67 8.85937C67.125 8.98437 67.1875 9.17187 67.1875 9.42187C67.1875 9.64062 67.2812 9.78125 67.4688 9.84375C67.6875 9.875 67.8594 9.95312 67.9844 10.0781C68.1406 10.2031 68.3438 10.3437 68.5938 10.5C68.8438 10.625 69.0469 10.6875 69.2031 10.6875C69.2969 10.6875 69.375 10.6719 69.4375 10.6406C69.5312 10.6094 69.625 10.5937 69.7188 10.5937C69.9375 10.5937 70.125 10.6406 70.2812 10.7344C70.4688 10.7969 70.6562 10.8281 70.8438 10.8281C70.9375 10.8281 71.0312 10.8281 71.125 10.8281C71.2188 10.7969 71.3125 10.7812 71.4062 10.7812C71.75 10.7812 72.0469 10.8437 72.2969 10.9687C72.5781 11.0625 72.9062 11 73.2812 10.7812C73.6875 11 74.0312 11.0937 74.3125 11.0625C74.625 11.0312 74.875 11.0781 75.0625 11.2031C75.1562 11.2656 75.2344 11.3281 75.2969 11.3906C75.3906 11.4531 75.4844 11.4844 75.5781 11.4844C75.6719 11.4844 75.75 11.4687 75.8125 11.4375C75.9062 11.4062 75.9844 11.3906 76.0469 11.3906C76.1719 11.3906 76.2969 11.4219 76.4219 11.4844C76.5469 11.5469 76.6562 11.5 76.75 11.3437C76.9375 11.5625 77.1719 11.6562 77.4531 11.625C77.7344 11.5937 78 11.5937 78.25 11.625C78.3438 11.7812 78.4062 11.8906 78.4375 11.9531C78.4688 11.9844 78.4688 12.1094 78.4375 12.3281C78.7188 12.2969 78.9375 12.3125 79.0938 12.375C79.25 12.4062 79.375 12.4687 79.4688 12.5625C79.5938 12.6562 79.7031 12.75 79.7969 12.8437C79.9219 12.9062 80.0781 12.9531 80.2656 12.9844C80.3594 13.2656 80.4844 13.5156 80.6406 13.7344C80.8281 13.9531 81.0781 14.0937 81.3906 14.1562C81.4844 14.4062 81.625 14.6406 81.8125 14.8594C82 15.0469 82.2031 15.2187 82.4219 15.375C82.4531 15.9062 82.6406 16.375 82.9844 16.7812ZM93.1562 24.7031C93.0938 24.7969 93.0312 24.8906 92.9688 24.9844C92.9062 25.0469 92.8594 25.125 92.8281 25.2187C92.6406 25.2812 92.4844 25.3594 92.3594 25.4531C92.2344 25.5156 92.0625 25.5469 91.8438 25.5469C91.4375 25.9531 91.0156 26.2656 90.5781 26.4844C90.3906 26.3281 90.1719 26.2344 89.9219 26.2031C89.7031 26.1406 89.4688 26.125 89.2188 26.1562C89.2188 26.125 89.1719 26.0625 89.0781 25.9687C88.9844 25.8437 88.875 25.7344 88.75 25.6406C88.6562 25.5156 88.5625 25.4062 88.4688 25.3125C88.375 25.1875 88.3125 25.125 88.2812 25.125C88.2812 24.75 88.2344 24.375 88.1406 24C88.0781 23.625 88.0469 23.2656 88.0469 22.9219C88.0469 22.6719 88.0938 22.4219 88.1875 22.1719C88.2812 21.9219 88.3281 21.6719 88.3281 21.4219C88.3281 21.1406 88.3125 20.8594 88.2812 20.5781C88.2812 20.2969 88.2812 20.0156 88.2812 19.7344C88.2812 19.6094 88.2969 19.5 88.3281 19.4062C88.3594 19.3125 88.375 19.2031 88.375 19.0781C88.375 18.9219 88.3281 18.7812 88.2344 18.6562C88.1719 18.5 88.1406 18.3437 88.1406 18.1875C88.1406 18.0312 88.1562 17.8906 88.1875 17.7656C88.25 17.6406 88.2812 17.5 88.2812 17.3437C88.2812 17.125 88.2031 16.9375 88.0469 16.7812C88.0781 16.625 88.125 16.5 88.1875 16.4062C88.25 16.3125 88.3125 16.1875 88.375 16.0312C88.1562 15.4062 88.125 14.8437 88.2812 14.3437C88.4375 13.8437 88.5156 13.2812 88.5156 12.6562C88.5156 12.5312 88.4844 12.4375 88.4219 12.375C88.3594 12.2812 88.3125 12.1719 88.2812 12.0469C88.4375 11.8281 88.4688 11.6562 88.375 11.5312C88.2812 11.375 88.2031 11.2187 88.1406 11.0625C88.2344 10.9687 88.2812 10.7969 88.2812 10.5469C88.2812 10.2969 88.2812 10.1094 88.2812 9.98437C88.3125 9.82812 88.2969 9.71875 88.2344 9.65625C88.2031 9.59375 88.1719 9.48437 88.1406 9.32812C88.2969 9.14062 88.3125 8.85937 88.1875 8.48437C88.0938 8.10937 88.0469 7.79687 88.0469 7.54687C88.0469 7.42187 88.0469 7.25 88.0469 7.03125C88.0781 6.78125 88.0938 6.53125 88.0938 6.28125C88.0938 6.03125 88.0938 5.79687 88.0938 5.57812C88.0938 5.35937 88.0781 5.1875 88.0469 5.0625C87.9844 4.96875 87.9219 4.875 87.8594 4.78125C87.7969 4.6875 87.7656 4.57812 87.7656 4.45312C87.7656 4.29687 87.7969 4.125 87.8594 3.9375C87.9219 3.75 87.9375 3.57812 87.9062 3.42187C88.0625 3.32812 88.1719 3.26562 88.2344 3.23437C88.2969 3.20312 88.4219 3.21875 88.6094 3.28125C88.6719 3.0625 88.7812 2.84375 88.9375 2.625C89.0938 2.40625 89.2969 2.29687 89.5469 2.29687C89.6719 2.29687 89.7812 2.34375 89.875 2.4375C89.9688 2.53125 90.0625 2.60937 90.1562 2.67187C90.25 2.73437 90.3438 2.78125 90.4375 2.8125C90.5312 2.8125 90.625 2.73437 90.7188 2.57812C90.9062 2.64062 91.0469 2.75 91.1406 2.90625C91.2344 3.03125 91.4062 3.10937 91.6562 3.14062C91.7188 3.35937 91.8125 3.57812 91.9375 3.79687C92.0625 3.98437 92.125 4.1875 92.125 4.40625C92.125 4.5625 92.0938 4.71875 92.0312 4.875C92 5 91.9844 5.14062 91.9844 5.29687C91.9844 5.39062 92 5.48437 92.0312 5.57812C92.0938 5.67187 92.125 5.78125 92.125 5.90625C92.125 6.09375 92.0938 6.28125 92.0312 6.46875C92 6.65625 91.9844 6.85937 91.9844 7.07812C91.9844 7.26562 92.0312 7.42187 92.125 7.54687C92.2188 7.64062 92.2656 7.76562 92.2656 7.92187C92.2656 8.17187 92.25 8.32812 92.2188 8.39062C92.2188 8.45312 92.2969 8.59375 92.4531 8.8125C92.4844 8.96875 92.4688 9.09375 92.4062 9.1875C92.375 9.28125 92.3594 9.375 92.3594 9.46875C92.3594 9.625 92.3906 9.75 92.4531 9.84375C92.5469 9.9375 92.5938 10.0312 92.5938 10.125C92.5938 10.2187 92.5625 10.3125 92.5 10.4062C92.4688 10.5 92.4531 10.5937 92.4531 10.6875C92.4531 11.4687 92.5 12.2031 92.5938 12.8906C92.625 13.0781 92.6719 13.2656 92.7344 13.4531C92.7969 13.6094 92.8281 13.7656 92.8281 13.9219C92.8281 14.1094 92.7969 14.2969 92.7344 14.4844C92.7031 14.6406 92.6875 14.8125 92.6875 15C92.6875 15.375 92.7031 15.75 92.7344 16.125C92.7969 16.4687 92.7969 16.8281 92.7344 17.2031C92.7969 17.3594 92.8281 17.5156 92.8281 17.6719C92.8281 17.7969 92.9062 17.8906 93.0625 17.9531C93 18.1094 92.9219 18.2187 92.8281 18.2812C92.7656 18.3437 92.7656 18.4844 92.8281 18.7031C92.7656 18.9531 92.7969 19.1406 92.9219 19.2656C93.0469 19.3906 93.1094 19.5156 93.1094 19.6406C93.1094 19.6719 93.0625 19.7187 92.9688 19.7812C92.875 19.8125 92.8281 19.9062 92.8281 20.0625C92.8281 20.1875 92.8594 20.2969 92.9219 20.3906C93.0156 20.4531 93.0625 20.5469 93.0625 20.6719C93.0625 20.8281 93.0469 20.9844 93.0156 21.1406C92.9844 21.2969 92.9688 21.4531 92.9688 21.6094C92.9688 21.9531 93.0156 22.3125 93.1094 22.6875C93.2031 23.0625 93.0938 23.4062 92.7812 23.7187C92.9375 23.875 93 24.0469 92.9688 24.2344C92.9375 24.4219 93 24.5781 93.1562 24.7031ZM106 2.10937C106.281 2.14062 106.547 2.125 106.797 2.0625C107.078 1.96875 107.359 1.89062 107.641 1.82812C108.078 1.73437 108.547 1.6875 109.047 1.6875C109.578 1.65625 110.062 1.64062 110.5 1.64062C111 1.64062 111.484 1.6875 111.953 1.78125C112.422 1.875 112.891 1.95312 113.359 2.01562C113.859 2.04687 114.344 2.125 114.812 2.25C115.281 2.375 115.75 2.5 116.219 2.625C116.5 2.71875 116.766 2.84375 117.016 3C117.266 3.125 117.516 3.26562 117.766 3.42187C117.891 3.79687 117.906 4.23437 117.812 4.73437C117.75 5.23437 117.562 5.625 117.25 5.90625C117.062 5.875 116.891 5.875 116.734 5.90625C116.578 5.90625 116.422 6 116.266 6.1875C116.172 6.15625 116.109 6.09375 116.078 6C116.047 5.875 115.953 5.79687 115.797 5.76562C115.641 5.70312 115.484 5.6875 115.328 5.71875C115.203 5.75 115.062 5.75 114.906 5.71875C114.688 5.6875 114.469 5.65625 114.25 5.625C114.062 5.5625 113.859 5.5 113.641 5.4375C113.578 5.46875 113.453 5.46875 113.266 5.4375C113.109 5.40625 112.938 5.375 112.75 5.34375C112.562 5.3125 112.391 5.29687 112.234 5.29687C112.078 5.26562 111.984 5.28125 111.953 5.34375C111.859 5.34375 111.781 5.28125 111.719 5.15625C111.688 5.03125 111.594 4.96875 111.438 4.96875C111.094 4.96875 110.781 4.98437 110.5 5.01562C110.219 5.04687 109.906 5.03125 109.562 4.96875C109.281 5.03125 109.062 5.14062 108.906 5.29687C108.75 5.45312 108.5 5.5 108.156 5.4375C108 5.5 107.875 5.57812 107.781 5.67187C107.688 5.76562 107.609 5.875 107.547 6C107.203 5.96875 106.922 6.01562 106.703 6.14062C106.484 6.26562 106.281 6.40625 106.094 6.5625C105.938 6.71875 105.781 6.875 105.625 7.03125C105.5 7.1875 105.344 7.28125 105.156 7.3125C105 7.90625 104.688 8.34375 104.219 8.625C104.156 8.875 104.141 9.0625 104.172 9.1875C104.016 9.21875 103.906 9.25 103.844 9.28125C103.812 9.3125 103.719 9.3125 103.562 9.28125C103.375 9.9375 103.047 10.4687 102.578 10.875V11.3906C102.422 11.4531 102.359 11.5469 102.391 11.6719C102.422 11.7969 102.312 11.8594 102.062 11.8594C102.188 12.1094 102.156 12.3906 101.969 12.7031C101.812 13.0156 101.703 13.3125 101.641 13.5937C101.484 13.75 101.406 13.9531 101.406 14.2031C101.438 14.4219 101.359 14.6406 101.172 14.8594C101.359 15.2344 101.438 15.6406 101.406 16.0781C101.406 16.5156 101.406 16.9531 101.406 17.3906C101.406 17.5469 101.453 17.6406 101.547 17.6719C101.641 17.7031 101.75 17.75 101.875 17.8125C101.812 18.0625 101.812 18.2969 101.875 18.5156C101.938 18.7031 102.016 18.8906 102.109 19.0781C102.203 19.2656 102.297 19.4531 102.391 19.6406C102.516 19.8281 102.578 20.0312 102.578 20.25C102.828 20.5625 103.125 20.7969 103.469 20.9531C103.812 21.0781 104.156 21.1875 104.5 21.2812C104.594 21.3437 104.656 21.4062 104.688 21.4687C104.75 21.5 104.797 21.5937 104.828 21.75C105.109 21.75 105.375 21.7969 105.625 21.8906C105.906 21.9844 106.203 22.0312 106.516 22.0312C106.891 22 107.125 22.0312 107.219 22.125C107.344 22.1875 107.516 22.2187 107.734 22.2187C107.891 22.2187 107.984 22.1719 108.016 22.0781C108.078 21.9844 108.172 21.9062 108.297 21.8437C108.734 22.0625 109.266 22.2187 109.891 22.3125C110.516 22.4062 111.047 22.2969 111.484 21.9844C111.609 21.9844 111.719 22 111.812 22.0312C111.906 22.0625 112 22.0781 112.094 22.0781C112.219 22.0781 112.312 22.0625 112.375 22.0312C112.438 21.9687 112.516 21.9062 112.609 21.8437C112.703 21.8125 112.875 21.7812 113.125 21.75C113.406 21.7187 113.688 21.6875 113.969 21.6562C114.281 21.625 114.562 21.6094 114.812 21.6094C115.094 21.6094 115.297 21.6094 115.422 21.6094C115.641 21.5156 115.812 21.3906 115.938 21.2344C116.062 21.0469 116.188 20.8594 116.312 20.6719C116.656 20.5781 116.875 20.6094 116.969 20.7656C117.094 20.8906 117.297 20.9531 117.578 20.9531C117.734 20.9531 117.828 20.9219 117.859 20.8594C117.922 20.7656 118.016 20.7031 118.141 20.6719C118.234 20.8281 118.328 20.9687 118.422 21.0937C118.547 21.2187 118.703 21.3125 118.891 21.375C118.891 21.5937 118.906 21.8125 118.938 22.0312C119 22.25 119.125 22.4375 119.312 22.5937C119.219 22.7187 119.062 22.8594 118.844 23.0156C118.625 23.1406 118.406 23.2812 118.188 23.4375C118 23.5937 117.812 23.75 117.625 23.9062C117.469 24.0625 117.391 24.2187 117.391 24.375C117.391 24.5 117.406 24.5937 117.438 24.6562C117.469 24.6875 117.453 24.7656 117.391 24.8906C117.297 24.9531 117.188 25 117.062 25.0312C116.969 25.0625 116.922 25.1562 116.922 25.3125C116.547 25.2812 116.203 25.2969 115.891 25.3594C115.578 25.3906 115.266 25.4531 114.953 25.5469C114.641 25.6406 114.328 25.7344 114.016 25.8281C113.734 25.8906 113.422 25.9219 113.078 25.9219C113.016 25.8281 112.906 25.7969 112.75 25.8281C112.594 25.8281 112.422 25.8594 112.234 25.9219C112.078 25.9531 111.906 26 111.719 26.0625C111.562 26.125 111.438 26.1562 111.344 26.1562C111.188 26.1562 111.031 26.1406 110.875 26.1094C110.719 26.0469 110.562 26.0156 110.406 26.0156C110.156 26.0156 109.922 26.0312 109.703 26.0625C109.516 26.0937 109.297 26.1094 109.047 26.1094C108.484 26.1094 108.156 26.0156 108.062 25.8281C107.969 25.6406 107.828 25.5469 107.641 25.5469C107.453 25.5469 107.344 25.6094 107.312 25.7344C107.312 25.8281 107.25 25.9219 107.125 26.0156C106.781 25.8906 106.406 25.75 106 25.5937C105.625 25.4375 105.25 25.4531 104.875 25.6406C104.719 25.4219 104.516 25.3125 104.266 25.3125C104.016 25.3125 103.828 25.2031 103.703 24.9844C103.484 24.9844 103.281 24.9687 103.094 24.9375C102.906 24.875 102.703 24.8437 102.484 24.8437C102.484 24.75 102.453 24.6875 102.391 24.6562C102.359 24.625 102.312 24.6094 102.25 24.6094C102.219 24.5781 102.188 24.5469 102.156 24.5156C102.125 24.4844 102.125 24.4062 102.156 24.2812C101.938 24.3125 101.766 24.3125 101.641 24.2812C101.547 24.2187 101.453 24.1562 101.359 24.0937C101.266 24.0312 101.156 23.9844 101.031 23.9531C100.906 23.8906 100.75 23.875 100.562 23.9062C100.469 23.5625 100.203 23.3125 99.7656 23.1562C99.6719 22.9375 99.5625 22.7344 99.4375 22.5469C99.3125 22.3281 99.125 22.1875 98.875 22.125C98.8125 21.75 98.7031 21.3906 98.5469 21.0469C98.3906 20.7031 98.2656 20.3437 98.1719 19.9687C98.1094 19.8125 98.0469 19.7187 97.9844 19.6875C97.9219 19.6562 97.8281 19.5937 97.7031 19.5C97.7969 19.0937 97.7969 18.7187 97.7031 18.375C97.6094 18 97.5 17.625 97.375 17.25C97.25 16.9375 97.2031 16.6406 97.2344 16.3594C97.2969 16.0469 97.2188 15.7344 97 15.4219C97.1562 14.8906 97.2812 14.2812 97.375 13.5937C97.5 12.9062 97.7656 12.3437 98.1719 11.9062C98.2344 11.625 98.1875 11.4687 98.0312 11.4375C97.875 11.4062 97.8125 11.3281 97.8438 11.2031C98.0625 10.9531 98.2656 10.7656 98.4531 10.6406C98.6406 10.4844 98.75 10.2031 98.7812 9.79687C99.0312 9.57812 99.1875 9.3125 99.25 9C99.3438 8.65625 99.4844 8.35937 99.6719 8.10937C99.8281 8.01562 99.9688 7.92187 100.094 7.82812C100.25 7.70312 100.406 7.59375 100.562 7.5C101.125 6.8125 101.688 6.21875 102.25 5.71875C102.219 5.5625 102.234 5.46875 102.297 5.4375C102.359 5.375 102.391 5.26562 102.391 5.10937C102.578 5.04687 102.672 4.96875 102.672 4.875C102.703 4.75 102.859 4.71875 103.141 4.78125C103.203 4.5625 103.328 4.35937 103.516 4.17187C103.734 3.95312 103.953 3.76562 104.172 3.60937C104.422 3.42187 104.641 3.26562 104.828 3.14062C105.016 2.98437 105.125 2.82812 105.156 2.67187C105.406 2.70312 105.562 2.65625 105.625 2.53125C105.719 2.40625 105.844 2.26562 106 2.10937ZM157.984 16.7812C157.828 17.4687 157.781 18.1562 157.844 18.8437C157.938 19.5312 157.906 20.2031 157.75 20.8594C157.688 21.2656 157.531 21.6406 157.281 21.9844C157.062 22.3281 156.984 22.7187 157.047 23.1562C156.953 23.1875 156.828 23.2656 156.672 23.3906C156.547 23.5156 156.406 23.6562 156.25 23.8125C156.125 23.9687 156 24.125 155.875 24.2812C155.781 24.4062 155.719 24.5156 155.688 24.6094C155.219 24.9844 154.812 25.3125 154.469 25.5937C154.156 25.875 153.844 26.1719 153.531 26.4844C153.281 26.4531 153.031 26.4531 152.781 26.4844C152.562 26.5156 152.375 26.6562 152.219 26.9062C151.938 26.8437 151.656 26.8594 151.375 26.9531C151.125 27.0156 150.844 27.0469 150.531 27.0469C150.406 27.0469 150.297 27.0156 150.203 26.9531C150.109 26.8594 149.984 26.8125 149.828 26.8125C149.734 26.8125 149.641 26.8437 149.547 26.9062C149.453 26.9375 149.359 26.9531 149.266 26.9531C149.109 26.9531 148.938 26.9375 148.75 26.9062C148.562 26.875 148.391 26.8594 148.234 26.8594C148.172 26.8594 148.047 26.8906 147.859 26.9531C147.672 27.0156 147.469 27.0781 147.25 27.1406C147.062 27.2344 146.875 27.3281 146.688 27.4219C146.531 27.5156 146.438 27.5781 146.406 27.6094C146.031 27.4531 145.672 27.2969 145.328 27.1406C144.984 26.9844 144.609 26.9531 144.203 27.0469C143.828 26.7031 143.438 26.5156 143.031 26.4844C142.656 26.4531 142.25 26.4062 141.812 26.3437C141.688 26.3437 141.609 26.2969 141.578 26.2031C141.578 26.0781 141.578 25.9687 141.578 25.875C141.141 25.9375 140.797 25.9531 140.547 25.9219C140.297 25.8594 140.078 25.7656 139.891 25.6406C139.734 25.4844 139.562 25.3125 139.375 25.125C139.219 24.9375 139 24.75 138.719 24.5625C138.781 24.375 138.781 24.2187 138.719 24.0937C138.688 23.9375 138.625 23.7969 138.531 23.6719C138.438 23.5156 138.344 23.375 138.25 23.25C138.188 23.0937 138.172 22.8906 138.203 22.6406C137.984 22.2344 137.641 21.9062 137.172 21.6562C137.141 21.5 137.094 21.375 137.031 21.2812C136.969 21.1875 136.938 21.0312 136.938 20.8125C136.938 20.625 136.875 20.5156 136.75 20.4844C136.625 20.4219 136.562 20.3437 136.562 20.25C136.719 19.9687 136.906 19.7344 137.125 19.5469C137.375 19.3594 137.562 19.125 137.688 18.8437C137.938 18.9375 138.109 18.9687 138.203 18.9375C138.297 18.875 138.469 18.9375 138.719 19.125C138.781 19.1875 138.891 19.2656 139.047 19.3594C139.234 19.4531 139.438 19.5625 139.656 19.6875C139.875 19.8125 140.078 19.9219 140.266 20.0156C140.453 20.1094 140.578 20.1719 140.641 20.2031C140.703 20.5781 140.844 20.8594 141.062 21.0469C141.312 21.2344 141.5 21.5 141.625 21.8437C141.781 21.9062 141.906 21.9687 142 22.0312C142.094 22.0625 142.25 22.0469 142.469 21.9844C142.531 22.1094 142.625 22.2031 142.75 22.2656C142.875 22.3281 142.969 22.4219 143.031 22.5469C143.5 22.4844 143.859 22.5156 144.109 22.6406C144.359 22.7656 144.688 22.8437 145.094 22.875C145.156 22.9687 145.219 23.0625 145.281 23.1562C145.344 23.2187 145.406 23.2812 145.469 23.3437C145.906 23.3125 146.375 23.3125 146.875 23.3437C147.406 23.375 147.875 23.2812 148.281 23.0625C148.438 23.2187 148.594 23.2656 148.75 23.2031C148.906 23.1406 149.062 23.1094 149.219 23.1094C149.375 23.1094 149.516 23.1562 149.641 23.25C149.797 23.3125 149.953 23.3437 150.109 23.3437C150.266 23.3437 150.406 23.3281 150.531 23.2969C150.688 23.2656 150.844 23.25 151 23.25C151.188 23.25 151.281 23.1719 151.281 23.0156C151.312 22.8594 151.391 22.7812 151.516 22.7812C151.766 22.7812 152.016 22.6719 152.266 22.4531C152.547 22.2344 152.781 22.0469 152.969 21.8906C153.125 21.8906 153.219 21.8437 153.25 21.75C153.312 21.625 153.453 21.5312 153.672 21.4687C154.016 21.125 154.188 20.75 154.188 20.3437C154.219 19.9375 154.141 19.5312 153.953 19.125C153.953 18.9687 154 18.8281 154.094 18.7031C154.219 18.5469 154.281 18.3906 154.281 18.2344C154.281 17.9219 154.172 17.6094 153.953 17.2969C153.734 16.9844 153.547 16.6875 153.391 16.4062C153.328 16.3125 153.266 16.2656 153.203 16.2656C153.141 16.2344 153.062 16.2031 152.969 16.1719C152.906 16.0156 152.844 15.9375 152.781 15.9375C152.75 15.9062 152.656 15.875 152.5 15.8437C152.406 15.75 152.266 15.6406 152.078 15.5156C151.891 15.3906 151.734 15.3281 151.609 15.3281C151.141 15.3281 150.891 15.2812 150.859 15.1875C150.859 15.0937 150.641 15.0469 150.203 15.0469C149.828 15.0469 149.453 15.125 149.078 15.2812C148.984 15.2187 148.844 15.1562 148.656 15.0937C148.469 15.0312 148.266 15 148.047 15C147.859 14.9687 147.672 14.9687 147.484 15C147.328 15.0312 147.203 15.0937 147.109 15.1875C147.047 15.125 146.922 15.0469 146.734 14.9531C146.547 14.8281 146.422 14.7656 146.359 14.7656C145.391 14.7656 144.5 14.6562 143.688 14.4375C142.906 14.1875 142.109 14.0625 141.297 14.0625C140.891 13.875 140.641 13.75 140.547 13.6875C140.453 13.625 140.312 13.5937 140.125 13.5937C139.969 13.4062 139.828 13.2344 139.703 13.0781C139.609 12.8906 139.469 12.7344 139.281 12.6094C139.281 12.3281 139.219 12.0781 139.094 11.8594C139 11.6406 138.875 11.4375 138.719 11.25C138.594 11.0625 138.469 10.875 138.344 10.6875C138.25 10.4687 138.203 10.2187 138.203 9.9375C137.984 9.5625 137.75 9.25 137.5 9C137.406 8.34375 137.406 7.60937 137.5 6.79687C137.594 5.95312 137.906 5.29687 138.438 4.82812V4.07812C138.75 4.07812 139 4.03125 139.188 3.9375C139.406 3.8125 139.594 3.67187 139.75 3.51562C139.938 3.35937 140.109 3.20312 140.266 3.04687C140.453 2.89062 140.672 2.76562 140.922 2.67187C141.078 2.60937 141.188 2.51562 141.25 2.39062C141.312 2.26562 141.375 2.125 141.438 1.96875C142.125 2.03125 142.812 1.96875 143.5 1.78125C144.188 1.5625 144.875 1.39062 145.562 1.26562C145.719 1.23437 145.844 1.15625 145.938 1.03125C146.031 0.90625 146.141 0.796875 146.266 0.703125C146.484 0.734375 146.672 0.796875 146.828 0.890625C147.016 0.953125 147.203 1 147.391 1.03125C147.547 1.09375 147.688 1.10937 147.812 1.07812C147.938 1.01562 148.078 0.984375 148.234 0.984375C148.391 0.984375 148.562 1.07812 148.75 1.26562C149.25 1.23437 149.625 1.3125 149.875 1.5C150.125 1.6875 150.375 1.76562 150.625 1.73437C150.812 1.98437 151.062 2.17187 151.375 2.29687C151.688 2.42187 152 2.48437 152.312 2.48437C152.344 2.64062 152.422 2.75 152.547 2.8125C152.672 2.875 152.75 2.98437 152.781 3.14062C153.188 3.20312 153.484 3.375 153.672 3.65625C153.891 3.90625 154.188 4.07812 154.562 4.17187C154.625 4.32812 154.688 4.45312 154.75 4.54687C154.844 4.60937 154.922 4.71875 154.984 4.875C155.203 4.84375 155.328 4.85937 155.359 4.92187C155.422 4.98437 155.531 5.04687 155.688 5.10937C155.906 5.54687 156.094 6.04687 156.25 6.60937C156.094 6.85937 155.953 7.125 155.828 7.40625C155.703 7.65625 155.516 7.85937 155.266 8.01562C154.453 8.01562 153.781 7.85937 153.25 7.54687C152.719 7.23437 152.188 6.78125 151.656 6.1875C151.5 6.125 151.297 6.09375 151.047 6.09375C150.797 6.0625 150.625 6 150.531 5.90625C150.219 5.625 149.984 5.5 149.828 5.53125C149.703 5.53125 149.562 5.5 149.406 5.4375C149.062 5.375 148.719 5.26562 148.375 5.10937C148.031 4.95312 147.672 4.875 147.297 4.875C147.109 4.875 146.938 4.90625 146.781 4.96875C146.656 5.03125 146.516 5.07812 146.359 5.10937C146.203 5.14062 146.062 5.14062 145.938 5.10937C145.844 5.07812 145.719 5.0625 145.562 5.0625C145.312 5.0625 145.141 5.10937 145.047 5.20312C144.984 5.29687 144.922 5.34375 144.859 5.34375C144.453 5.34375 144.109 5.40625 143.828 5.53125C143.578 5.65625 143.359 5.75 143.172 5.8125C143.047 5.875 142.938 5.95312 142.844 6.04687C142.75 6.10937 142.688 6.21875 142.656 6.375C142.312 6.4375 142.078 6.57812 141.953 6.79687C141.828 6.98437 141.641 7.125 141.391 7.21875C141.297 7.375 141.328 7.53125 141.484 7.6875C141.359 7.875 141.328 8.03125 141.391 8.15625C141.453 8.25 141.531 8.35937 141.625 8.48437C141.75 8.57812 141.875 8.70312 142 8.85937C142.125 8.98437 142.188 9.17187 142.188 9.42187C142.188 9.64062 142.281 9.78125 142.469 9.84375C142.688 9.875 142.859 9.95312 142.984 10.0781C143.141 10.2031 143.344 10.3437 143.594 10.5C143.844 10.625 144.047 10.6875 144.203 10.6875C144.297 10.6875 144.375 10.6719 144.438 10.6406C144.531 10.6094 144.625 10.5937 144.719 10.5937C144.938 10.5937 145.125 10.6406 145.281 10.7344C145.469 10.7969 145.656 10.8281 145.844 10.8281C145.938 10.8281 146.031 10.8281 146.125 10.8281C146.219 10.7969 146.312 10.7812 146.406 10.7812C146.75 10.7812 147.047 10.8437 147.297 10.9687C147.578 11.0625 147.906 11 148.281 10.7812C148.688 11 149.031 11.0937 149.312 11.0625C149.625 11.0312 149.875 11.0781 150.062 11.2031C150.156 11.2656 150.234 11.3281 150.297 11.3906C150.391 11.4531 150.484 11.4844 150.578 11.4844C150.672 11.4844 150.75 11.4687 150.812 11.4375C150.906 11.4062 150.984 11.3906 151.047 11.3906C151.172 11.3906 151.297 11.4219 151.422 11.4844C151.547 11.5469 151.656 11.5 151.75 11.3437C151.938 11.5625 152.172 11.6562 152.453 11.625C152.734 11.5937 153 11.5937 153.25 11.625C153.344 11.7812 153.406 11.8906 153.438 11.9531C153.469 11.9844 153.469 12.1094 153.438 12.3281C153.719 12.2969 153.938 12.3125 154.094 12.375C154.25 12.4062 154.375 12.4687 154.469 12.5625C154.594 12.6562 154.703 12.75 154.797 12.8437C154.922 12.9062 155.078 12.9531 155.266 12.9844C155.359 13.2656 155.484 13.5156 155.641 13.7344C155.828 13.9531 156.078 14.0937 156.391 14.1562C156.484 14.4062 156.625 14.6406 156.812 14.8594C157 15.0469 157.203 15.2187 157.422 15.375C157.453 15.9062 157.641 16.375 157.984 16.7812ZM169.844 2.10937C170.125 2.14062 170.391 2.125 170.641 2.0625C170.922 1.96875 171.203 1.89062 171.484 1.82812C171.922 1.73437 172.391 1.6875 172.891 1.6875C173.422 1.65625 173.906 1.64062 174.344 1.64062C174.844 1.64062 175.328 1.6875 175.797 1.78125C176.266 1.875 176.734 1.95312 177.203 2.01562C177.703 2.04687 178.188 2.125 178.656 2.25C179.125 2.375 179.594 2.5 180.062 2.625C180.344 2.71875 180.609 2.84375 180.859 3C181.109 3.125 181.359 3.26562 181.609 3.42187C181.734 3.79687 181.75 4.23437 181.656 4.73437C181.594 5.23437 181.406 5.625 181.094 5.90625C180.906 5.875 180.734 5.875 180.578 5.90625C180.422 5.90625 180.266 6 180.109 6.1875C180.016 6.15625 179.953 6.09375 179.922 6C179.891 5.875 179.797 5.79687 179.641 5.76562C179.484 5.70312 179.328 5.6875 179.172 5.71875C179.047 5.75 178.906 5.75 178.75 5.71875C178.531 5.6875 178.312 5.65625 178.094 5.625C177.906 5.5625 177.703 5.5 177.484 5.4375C177.422 5.46875 177.297 5.46875 177.109 5.4375C176.953 5.40625 176.781 5.375 176.594 5.34375C176.406 5.3125 176.234 5.29687 176.078 5.29687C175.922 5.26562 175.828 5.28125 175.797 5.34375C175.703 5.34375 175.625 5.28125 175.562 5.15625C175.531 5.03125 175.438 4.96875 175.281 4.96875C174.938 4.96875 174.625 4.98437 174.344 5.01562C174.062 5.04687 173.75 5.03125 173.406 4.96875C173.125 5.03125 172.906 5.14062 172.75 5.29687C172.594 5.45312 172.344 5.5 172 5.4375C171.844 5.5 171.719 5.57812 171.625 5.67187C171.531 5.76562 171.453 5.875 171.391 6C171.047 5.96875 170.766 6.01562 170.547 6.14062C170.328 6.26562 170.125 6.40625 169.938 6.5625C169.781 6.71875 169.625 6.875 169.469 7.03125C169.344 7.1875 169.188 7.28125 169 7.3125C168.844 7.90625 168.531 8.34375 168.062 8.625C168 8.875 167.984 9.0625 168.016 9.1875C167.859 9.21875 167.75 9.25 167.688 9.28125C167.656 9.3125 167.562 9.3125 167.406 9.28125C167.219 9.9375 166.891 10.4687 166.422 10.875V11.3906C166.266 11.4531 166.203 11.5469 166.234 11.6719C166.266 11.7969 166.156 11.8594 165.906 11.8594C166.031 12.1094 166 12.3906 165.812 12.7031C165.656 13.0156 165.547 13.3125 165.484 13.5937C165.328 13.75 165.25 13.9531 165.25 14.2031C165.281 14.4219 165.203 14.6406 165.016 14.8594C165.203 15.2344 165.281 15.6406 165.25 16.0781C165.25 16.5156 165.25 16.9531 165.25 17.3906C165.25 17.5469 165.297 17.6406 165.391 17.6719C165.484 17.7031 165.594 17.75 165.719 17.8125C165.656 18.0625 165.656 18.2969 165.719 18.5156C165.781 18.7031 165.859 18.8906 165.953 19.0781C166.047 19.2656 166.141 19.4531 166.234 19.6406C166.359 19.8281 166.422 20.0312 166.422 20.25C166.672 20.5625 166.969 20.7969 167.312 20.9531C167.656 21.0781 168 21.1875 168.344 21.2812C168.438 21.3437 168.5 21.4062 168.531 21.4687C168.594 21.5 168.641 21.5937 168.672 21.75C168.953 21.75 169.219 21.7969 169.469 21.8906C169.75 21.9844 170.047 22.0312 170.359 22.0312C170.734 22 170.969 22.0312 171.062 22.125C171.188 22.1875 171.359 22.2187 171.578 22.2187C171.734 22.2187 171.828 22.1719 171.859 22.0781C171.922 21.9844 172.016 21.9062 172.141 21.8437C172.578 22.0625 173.109 22.2187 173.734 22.3125C174.359 22.4062 174.891 22.2969 175.328 21.9844C175.453 21.9844 175.562 22 175.656 22.0312C175.75 22.0625 175.844 22.0781 175.938 22.0781C176.062 22.0781 176.156 22.0625 176.219 22.0312C176.281 21.9687 176.359 21.9062 176.453 21.8437C176.547 21.8125 176.719 21.7812 176.969 21.75C177.25 21.7187 177.531 21.6875 177.812 21.6562C178.125 21.625 178.406 21.6094 178.656 21.6094C178.938 21.6094 179.141 21.6094 179.266 21.6094C179.484 21.5156 179.656 21.3906 179.781 21.2344C179.906 21.0469 180.031 20.8594 180.156 20.6719C180.5 20.5781 180.719 20.6094 180.812 20.7656C180.938 20.8906 181.141 20.9531 181.422 20.9531C181.578 20.9531 181.672 20.9219 181.703 20.8594C181.766 20.7656 181.859 20.7031 181.984 20.6719C182.078 20.8281 182.172 20.9687 182.266 21.0937C182.391 21.2187 182.547 21.3125 182.734 21.375C182.734 21.5937 182.75 21.8125 182.781 22.0312C182.844 22.25 182.969 22.4375 183.156 22.5937C183.062 22.7187 182.906 22.8594 182.688 23.0156C182.469 23.1406 182.25 23.2812 182.031 23.4375C181.844 23.5937 181.656 23.75 181.469 23.9062C181.312 24.0625 181.234 24.2187 181.234 24.375C181.234 24.5 181.25 24.5937 181.281 24.6562C181.312 24.6875 181.297 24.7656 181.234 24.8906C181.141 24.9531 181.031 25 180.906 25.0312C180.812 25.0625 180.766 25.1562 180.766 25.3125C180.391 25.2812 180.047 25.2969 179.734 25.3594C179.422 25.3906 179.109 25.4531 178.797 25.5469C178.484 25.6406 178.172 25.7344 177.859 25.8281C177.578 25.8906 177.266 25.9219 176.922 25.9219C176.859 25.8281 176.75 25.7969 176.594 25.8281C176.438 25.8281 176.266 25.8594 176.078 25.9219C175.922 25.9531 175.75 26 175.562 26.0625C175.406 26.125 175.281 26.1562 175.188 26.1562C175.031 26.1562 174.875 26.1406 174.719 26.1094C174.562 26.0469 174.406 26.0156 174.25 26.0156C174 26.0156 173.766 26.0312 173.547 26.0625C173.359 26.0937 173.141 26.1094 172.891 26.1094C172.328 26.1094 172 26.0156 171.906 25.8281C171.812 25.6406 171.672 25.5469 171.484 25.5469C171.297 25.5469 171.188 25.6094 171.156 25.7344C171.156 25.8281 171.094 25.9219 170.969 26.0156C170.625 25.8906 170.25 25.75 169.844 25.5937C169.469 25.4375 169.094 25.4531 168.719 25.6406C168.562 25.4219 168.359 25.3125 168.109 25.3125C167.859 25.3125 167.672 25.2031 167.547 24.9844C167.328 24.9844 167.125 24.9687 166.938 24.9375C166.75 24.875 166.547 24.8437 166.328 24.8437C166.328 24.75 166.297 24.6875 166.234 24.6562C166.203 24.625 166.156 24.6094 166.094 24.6094C166.062 24.5781 166.031 24.5469 166 24.5156C165.969 24.4844 165.969 24.4062 166 24.2812C165.781 24.3125 165.609 24.3125 165.484 24.2812C165.391 24.2187 165.297 24.1562 165.203 24.0937C165.109 24.0312 165 23.9844 164.875 23.9531C164.75 23.8906 164.594 23.875 164.406 23.9062C164.312 23.5625 164.047 23.3125 163.609 23.1562C163.516 22.9375 163.406 22.7344 163.281 22.5469C163.156 22.3281 162.969 22.1875 162.719 22.125C162.656 21.75 162.547 21.3906 162.391 21.0469C162.234 20.7031 162.109 20.3437 162.016 19.9687C161.953 19.8125 161.891 19.7187 161.828 19.6875C161.766 19.6562 161.672 19.5937 161.547 19.5C161.641 19.0937 161.641 18.7187 161.547 18.375C161.453 18 161.344 17.625 161.219 17.25C161.094 16.9375 161.047 16.6406 161.078 16.3594C161.141 16.0469 161.062 15.7344 160.844 15.4219C161 14.8906 161.125 14.2812 161.219 13.5937C161.344 12.9062 161.609 12.3437 162.016 11.9062C162.078 11.625 162.031 11.4687 161.875 11.4375C161.719 11.4062 161.656 11.3281 161.688 11.2031C161.906 10.9531 162.109 10.7656 162.297 10.6406C162.484 10.4844 162.594 10.2031 162.625 9.79687C162.875 9.57812 163.031 9.3125 163.094 9C163.188 8.65625 163.328 8.35937 163.516 8.10937C163.672 8.01562 163.812 7.92187 163.938 7.82812C164.094 7.70312 164.25 7.59375 164.406 7.5C164.969 6.8125 165.531 6.21875 166.094 5.71875C166.062 5.5625 166.078 5.46875 166.141 5.4375C166.203 5.375 166.234 5.26562 166.234 5.10937C166.422 5.04687 166.516 4.96875 166.516 4.875C166.547 4.75 166.703 4.71875 166.984 4.78125C167.047 4.5625 167.172 4.35937 167.359 4.17187C167.578 3.95312 167.797 3.76562 168.016 3.60937C168.266 3.42187 168.484 3.26562 168.672 3.14062C168.859 2.98437 168.969 2.82812 169 2.67187C169.25 2.70312 169.406 2.65625 169.469 2.53125C169.562 2.40625 169.688 2.26562 169.844 2.10937ZM209.125 22.6875C208.875 23.125 208.75 23.5937 208.75 24.0937C208.781 24.5937 208.719 25.0625 208.562 25.5C208.125 25.4375 207.875 25.4844 207.812 25.6406C207.781 25.7656 207.609 25.8281 207.297 25.8281C206.672 25.8281 206.109 25.6562 205.609 25.3125C205.453 25.2812 205.312 25.2812 205.188 25.3125C205.062 25.3437 204.922 25.3906 204.766 25.4531C204.703 25.3906 204.656 25.3125 204.625 25.2187C204.625 25.125 204.609 25.0312 204.578 24.9375C204.516 24.7187 204.422 24.5625 204.297 24.4687C204.172 24.3437 204.078 24.2031 204.016 24.0469C203.953 23.7969 203.922 23.6094 203.922 23.4844C203.922 23.3594 203.844 23.2031 203.688 23.0156C203.969 22.3906 204.188 21.8437 204.344 21.375C204.531 20.875 204.547 20.2812 204.391 19.5937C204.297 19.4687 204.156 19.375 203.969 19.3125C203.812 19.25 203.641 19.2187 203.453 19.2187C203.266 19.1875 203.078 19.1719 202.891 19.1719C202.703 19.1406 202.547 19.0937 202.422 19.0312C202.266 19.125 202.094 19.2031 201.906 19.2656C201.75 19.3281 201.594 19.4062 201.438 19.5C201.312 19.5 201.219 19.4687 201.156 19.4062C201.094 19.3125 200.969 19.2656 200.781 19.2656C200.625 19.2656 200.484 19.2969 200.359 19.3594C200.234 19.3906 200.094 19.4062 199.938 19.4062C199.562 19.4062 199.188 19.375 198.812 19.3125C198.469 19.2187 198.109 19.1719 197.734 19.1719C197.578 19.1719 197.438 19.1875 197.312 19.2187C197.188 19.25 197.047 19.2656 196.891 19.2656C196.547 19.2656 196.203 19.1875 195.859 19.0312C195.547 18.875 195.281 18.7969 195.062 18.7969C194.906 18.7969 194.766 18.8437 194.641 18.9375C194.547 19.0312 194.422 19.0781 194.266 19.0781C194.141 19.0781 194.016 19.0625 193.891 19.0312C193.797 18.9687 193.688 18.9375 193.562 18.9375C193.469 18.875 193.328 18.8437 193.141 18.8437C192.953 18.8437 192.766 18.8906 192.578 18.9844C192.391 19.0469 192.203 19.1406 192.016 19.2656C191.828 19.3906 191.688 19.5 191.594 19.5937C191.594 19.8437 191.594 20.0469 191.594 20.2031C191.594 20.3281 191.594 20.4531 191.594 20.5781C191.625 20.7031 191.672 20.8281 191.734 20.9531C191.828 21.0469 191.938 21.2031 192.062 21.4219C192.188 21.6406 192.297 21.8594 192.391 22.0781C192.484 22.2656 192.578 22.4687 192.672 22.6875C192.359 23.0312 192.359 23.1875 192.672 23.1562C192.547 23.7187 192.422 24.0469 192.297 24.1406C192.203 24.2031 192.125 24.375 192.062 24.6562C192.094 24.75 192.078 24.875 192.016 25.0312C191.984 25.1562 192.031 25.25 192.156 25.3125C192.094 25.4687 191.953 25.5937 191.734 25.6875C191.516 25.7812 191.469 25.9375 191.594 26.1562C191.531 26.2187 191.438 26.2656 191.312 26.2969C191.219 26.2969 191.125 26.3281 191.031 26.3906L189.953 26.7187C189.797 26.7187 189.688 26.7031 189.625 26.6719C189.594 26.6406 189.5 26.5781 189.344 26.4844C189.188 26.3594 189.016 26.3125 188.828 26.3437C188.672 26.3437 188.531 26.2969 188.406 26.2031C188.219 25.9219 188.094 25.7031 188.031 25.5469C188 25.3594 187.984 25.1875 187.984 25.0312C187.828 24.875 187.719 24.6719 187.656 24.4219C187.594 24.1719 187.453 23.9844 187.234 23.8594C187.328 23.6406 187.469 23.5 187.656 23.4375C187.625 23.0937 187.609 22.7656 187.609 22.4531C187.641 22.1406 187.656 21.8125 187.656 21.4687C187.656 21.125 187.641 20.75 187.609 20.3437C187.578 19.9375 187.484 19.5937 187.328 19.3125C187.266 19.2187 187.203 19.1406 187.141 19.0781C187.109 18.9844 187.078 18.8906 187.047 18.7969C187.016 18.6406 187 18.4844 187 18.3281C187.031 18.1406 187.047 17.9687 187.047 17.8125C187.047 17.625 187 17.4687 186.906 17.3437C186.844 17.1875 186.812 17.0312 186.812 16.875C186.812 16.7812 186.828 16.6875 186.859 16.5937C186.891 16.4687 186.906 16.3594 186.906 16.2656C186.938 15.5781 186.938 15.0156 186.906 14.5781C186.875 14.1406 186.844 13.7031 186.812 13.2656C186.875 12.8281 186.938 12.5781 187 12.5156C187.062 12.4219 187.094 12.25 187.094 12C187.094 11.8437 187.078 11.7031 187.047 11.5781C187.047 11.4531 187.047 11.3125 187.047 11.1562C187.047 10.6875 187.062 10.2031 187.094 9.70312C187.125 9.20312 187.109 8.71875 187.047 8.25C187.016 8.0625 186.969 7.90625 186.906 7.78125C186.875 7.625 186.859 7.4375 186.859 7.21875C186.859 7.0625 186.812 6.90625 186.719 6.75C186.625 6.59375 186.516 6.46875 186.391 6.375C186.422 6.28125 186.438 6.1875 186.438 6.09375C186.438 5.96875 186.438 5.85937 186.438 5.76562C186.75 5.70312 186.844 5.51562 186.719 5.20312C186.75 4.95312 186.719 4.8125 186.625 4.78125C186.531 4.75 186.406 4.65625 186.25 4.5C186.375 4.15625 186.453 3.8125 186.484 3.46875C186.547 3.125 186.609 2.78125 186.672 2.4375C187.109 2.3125 187.516 2.15625 187.891 1.96875C188.266 1.78125 188.641 1.59375 189.016 1.40625C189.266 1.5 189.453 1.59375 189.578 1.6875C189.703 1.78125 189.75 1.98437 189.719 2.29687C189.938 2.42187 190.156 2.5 190.375 2.53125C190.312 2.78125 190.344 2.98437 190.469 3.14062C190.594 3.29687 190.656 3.48437 190.656 3.70312C190.656 3.89062 190.609 4.07812 190.516 4.26562C190.422 4.45312 190.344 4.625 190.281 4.78125C190.375 4.90625 190.406 5.04687 190.375 5.20312C190.375 5.35937 190.359 5.51562 190.328 5.67187C190.328 5.82812 190.312 5.96875 190.281 6.09375C190.281 6.21875 190.328 6.3125 190.422 6.375C190.391 6.9375 190.438 7.39062 190.562 7.73437C190.688 8.07812 190.75 8.375 190.75 8.625C190.75 8.78125 190.703 8.92187 190.609 9.04687C190.547 9.17187 190.594 9.3125 190.75 9.46875C190.781 9.5625 190.734 9.64062 190.609 9.70312C190.484 9.76562 190.422 9.875 190.422 10.0312C190.422 10.2812 190.469 10.5312 190.562 10.7812C190.656 11 190.688 11.2344 190.656 11.4844C190.625 11.7656 190.609 11.9531 190.609 12.0469C190.641 12.1094 190.656 12.1719 190.656 12.2344C190.656 12.6719 190.625 13.0781 190.562 13.4531C190.531 13.7969 190.562 14.1719 190.656 14.5781C190.906 14.7344 191.156 14.8594 191.406 14.9531C191.656 15.0156 191.906 15.1094 192.156 15.2344C192.5 15.1719 192.828 15.0937 193.141 15C193.484 14.9062 193.828 14.8594 194.172 14.8594C194.391 14.8594 194.594 14.9062 194.781 15C194.969 15.0625 195.156 15.0937 195.344 15.0937C195.562 15.0937 195.766 15.0625 195.953 15C196.141 14.9062 196.328 14.8594 196.516 14.8594C196.672 14.8594 196.859 14.9375 197.078 15.0937C197.297 15.25 197.469 15.375 197.594 15.4687C197.844 15.5 198 15.4687 198.062 15.375C198.125 15.25 198.234 15.1562 198.391 15.0937C198.484 15.3125 198.656 15.4687 198.906 15.5625H199.938C200.312 15.5625 200.672 15.4844 201.016 15.3281C201.359 15.1719 201.719 15.0937 202.094 15.0937C202.188 15.0937 202.266 15.125 202.328 15.1875C202.391 15.2187 202.469 15.2344 202.562 15.2344C202.656 15.2344 202.734 15.2031 202.797 15.1406C202.891 15.0469 202.984 15 203.078 15C203.328 15 203.547 15.0156 203.734 15.0469C203.953 15.0469 204.172 14.9687 204.391 14.8125C204.391 14.5625 204.391 14.2656 204.391 13.9219C204.391 13.5469 204.281 13.2656 204.062 13.0781C204.219 12.4531 204.234 11.8437 204.109 11.25C203.984 10.6562 203.922 10.0469 203.922 9.42187C203.922 9.26562 203.938 9.10937 203.969 8.95312C204.031 8.79687 204.062 8.64062 204.062 8.48437C204.062 8.32812 204.016 8.21875 203.922 8.15625C203.828 8.0625 203.75 7.9375 203.688 7.78125C203.75 7.4375 203.75 7.0625 203.688 6.65625C203.625 6.21875 203.469 5.875 203.219 5.625C203.188 5.53125 203.203 5.45312 203.266 5.39062C203.328 5.29687 203.359 5.20312 203.359 5.10937C203.359 4.95312 203.328 4.8125 203.266 4.6875C203.203 4.5625 203.172 4.42187 203.172 4.26562C203.172 3.82812 203.234 3.40625 203.359 3C203.516 2.5625 203.625 2.125 203.688 1.6875C203.969 1.5625 204.25 1.45312 204.531 1.35937C204.844 1.26562 205.125 1.09375 205.375 0.84375C205.562 0.90625 205.75 1 205.938 1.125C206.125 1.21875 206.312 1.29687 206.5 1.35937C206.531 1.48437 206.547 1.57812 206.547 1.64062C206.578 1.70312 206.656 1.75 206.781 1.78125C206.844 1.78125 206.891 1.875 206.922 2.0625C206.953 2.21875 207.047 2.28125 207.203 2.25C207.234 2.53125 207.312 2.70312 207.438 2.76562C207.469 2.92187 207.469 3.07812 207.438 3.23437C207.406 3.35937 207.469 3.46875 207.625 3.5625C207.594 3.6875 207.531 3.79687 207.438 3.89062C207.344 3.95312 207.297 4.04687 207.297 4.17187C207.297 4.42187 207.328 4.6875 207.391 4.96875C207.453 5.21875 207.5 5.48437 207.531 5.76562C207.594 6.01562 207.625 6.28125 207.625 6.5625C207.625 6.8125 207.547 7.0625 207.391 7.3125C207.484 7.5625 207.609 7.82812 207.766 8.10937C207.922 8.39062 208.031 8.67187 208.094 8.95312C208.062 9.07812 208 9.1875 207.906 9.28125C207.812 9.375 207.766 9.5 207.766 9.65625C207.766 10.0625 207.781 10.4687 207.812 10.875C207.844 11.2812 207.906 11.6875 208 12.0937C207.938 12.3125 207.922 12.4687 207.953 12.5625C208.016 12.6562 208.078 12.75 208.141 12.8437C208.297 13.1875 208.375 13.625 208.375 14.1562C208.406 14.6875 208.344 15.125 208.188 15.4687C208.344 15.7812 208.422 16.1875 208.422 16.6875C208.422 16.8437 208.391 17.125 208.328 17.5312C208.266 17.9062 208.219 18.3125 208.188 18.75C208.188 19.1562 208.203 19.5312 208.234 19.875C208.297 20.1875 208.438 20.3437 208.656 20.3437C208.594 20.6562 208.594 20.9531 208.656 21.2344C208.719 21.4844 208.688 21.7656 208.562 22.0781C208.594 22.2344 208.656 22.3594 208.75 22.4531C208.844 22.5156 208.969 22.5937 209.125 22.6875ZM220.516 25.9219C220.234 25.9531 219.969 25.9375 219.719 25.875C219.469 25.7812 219.203 25.7187 218.922 25.6875C218.859 25.5625 218.766 25.4375 218.641 25.3125C218.516 25.1562 218.375 25.0469 218.219 24.9844C217.719 24.7656 217.422 24.5156 217.328 24.2344C217.234 23.9531 216.969 23.7812 216.531 23.7187C216.531 23.5312 216.5 23.4062 216.438 23.3437C216.375 23.25 216.297 23.1719 216.203 23.1094C216.141 23.0469 216.062 23 215.969 22.9687C215.875 22.9062 215.781 22.8125 215.688 22.6875C215.594 22.3437 215.484 22 215.359 21.6562C215.234 21.3125 215 21.0469 214.656 20.8594C214.656 20.5156 214.641 20.2969 214.609 20.2031C214.578 20.0781 214.531 20.0156 214.469 20.0156C214.438 19.9844 214.391 19.9687 214.328 19.9687C214.297 19.9375 214.25 19.8437 214.188 19.6875C214.219 19.3437 214.141 19.0781 213.953 18.8906C213.797 18.6719 213.688 18.5156 213.625 18.4219C213.625 18.2969 213.625 18.1875 213.625 18.0937C213.656 17.9687 213.703 17.8437 213.766 17.7187C213.578 17.6562 213.453 17.5625 213.391 17.4375C213.359 17.2812 213.328 17.125 213.297 16.9687C213.266 16.8125 213.234 16.6562 213.203 16.5C213.172 16.3437 213.078 16.2187 212.922 16.125C212.984 15.7187 213.016 15.3125 213.016 14.9062C213.047 14.4687 212.938 14.0781 212.688 13.7344C212.969 13.3594 213.109 12.9531 213.109 12.5156C213.141 12.0469 213.234 11.5937 213.391 11.1562C213.391 11 213.344 10.8594 213.25 10.7344C213.188 10.5781 213.125 10.4219 213.062 10.2656C213.312 10.2031 213.422 10.0312 213.391 9.75C213.391 9.46875 213.391 9.21875 213.391 9C213.516 8.75 213.641 8.53125 213.766 8.34375C213.891 8.15625 214 7.98437 214.094 7.82812C214.188 7.64062 214.266 7.45312 214.328 7.26562C214.391 7.04687 214.422 6.78125 214.422 6.46875C214.672 6.3125 214.891 6.125 215.078 5.90625C215.266 5.6875 215.453 5.46875 215.641 5.25C215.828 5 216.016 4.78125 216.203 4.59375C216.391 4.375 216.609 4.1875 216.859 4.03125C216.953 3.875 217.047 3.76562 217.141 3.70312C217.266 3.60937 217.359 3.45312 217.422 3.23437C217.734 3.14062 218.016 3 218.266 2.8125C218.547 2.625 218.812 2.45312 219.062 2.29687C219.5 2.01562 219.984 1.78125 220.516 1.59375C221.078 1.375 221.625 1.23437 222.156 1.17187C222.25 1.07812 222.359 1 222.484 0.9375C222.609 0.875 222.734 0.796875 222.859 0.703125C223.016 0.671875 223.156 0.671875 223.281 0.703125C223.438 0.703125 223.562 0.703125 223.656 0.703125C223.75 0.671875 223.844 0.625 223.938 0.5625C224.031 0.5 224.109 0.359375 224.172 0.140625L224.453 0.703125C224.672 0.734375 224.844 0.765625 224.969 0.796875C225.094 0.796875 225.234 0.6875 225.391 0.46875C225.766 0.5625 226.141 0.625 226.516 0.65625C226.891 0.6875 227.266 0.734375 227.641 0.796875C227.953 1.07812 228.125 1.26562 228.156 1.35937C228.219 1.42187 228.281 1.51562 228.344 1.64062C228.594 1.67187 228.797 1.76562 228.953 1.92187C229.109 2.04687 229.328 2.10937 229.609 2.10937C229.703 2.35937 229.844 2.51562 230.031 2.57812C230.25 2.60937 230.391 2.75 230.453 3C230.672 3.03125 230.891 3.10937 231.109 3.23437C231.297 3.60937 231.547 3.90625 231.859 4.125C232.203 4.34375 232.453 4.65625 232.609 5.0625C232.797 5.15625 232.938 5.28125 233.031 5.4375C233.156 5.5625 233.266 5.70312 233.359 5.85937C233.484 5.98437 233.594 6.125 233.688 6.28125C233.812 6.40625 233.969 6.5 234.156 6.5625C234.156 6.71875 234.125 6.84375 234.062 6.9375C234 7 233.984 7.07812 234.016 7.17187C234.203 7.23437 234.312 7.34375 234.344 7.5C234.406 7.65625 234.453 7.8125 234.484 7.96875C234.547 8.125 234.609 8.28125 234.672 8.4375C234.766 8.5625 234.922 8.64062 235.141 8.67187C235.141 8.95312 235.156 9.17187 235.188 9.32812C235.219 9.45312 235.281 9.64062 235.375 9.89062C235.531 10.2031 235.609 10.5156 235.609 10.8281C235.641 11.1094 235.688 11.4219 235.75 11.7656C235.75 11.8594 235.781 11.9375 235.844 12C235.938 12.0625 236.016 12.125 236.078 12.1875C236.016 12.4375 236.016 12.6875 236.078 12.9375C236.141 13.1875 236.172 13.4375 236.172 13.6875C236.172 13.8437 236.125 13.9531 236.031 14.0156C235.938 14.0469 235.891 14.0937 235.891 14.1562C235.922 14.2187 236 14.2969 236.125 14.3906C236.281 14.4531 236.391 14.5156 236.453 14.5781C236.234 14.6406 236.094 14.7656 236.031 14.9531C236 15.1094 235.984 15.2969 235.984 15.5156C235.984 15.7031 235.984 15.9062 235.984 16.125C236.016 16.3437 236.016 16.5312 235.984 16.6875C235.953 16.8125 235.906 16.9062 235.844 16.9687C235.781 17.0312 235.75 17.125 235.75 17.25C235.812 17.5937 235.812 17.7969 235.75 17.8594C235.688 17.9219 235.641 18 235.609 18.0937C235.578 18.25 235.562 18.3906 235.562 18.5156C235.594 18.6406 235.609 18.7812 235.609 18.9375C235.609 19.1875 235.547 19.3906 235.422 19.5469C235.328 19.7031 235.203 19.875 235.047 20.0625C235.016 20.2187 235.031 20.3281 235.094 20.3906C235.188 20.4531 235.203 20.5625 235.141 20.7187C234.891 21.125 234.656 21.5312 234.438 21.9375C234.219 22.3125 234 22.7187 233.781 23.1562C233.625 23.4062 233.438 23.5937 233.219 23.7187C233.031 23.8437 232.875 24.0781 232.75 24.4219C232.438 24.4844 232.109 24.625 231.766 24.8437C231.453 25.0312 231.141 25.2344 230.828 25.4531C230.547 25.6719 230.297 25.875 230.078 26.0625C229.859 26.25 229.734 26.3437 229.703 26.3437C229.484 26.375 229.328 26.4375 229.234 26.5312C229.141 26.5937 228.969 26.625 228.719 26.625C228.562 26.5937 228.453 26.6719 228.391 26.8594C228.328 27.0469 228.156 27.1719 227.875 27.2344C227.469 27.3906 227.203 27.4687 227.078 27.4687C226.953 27.4687 226.812 27.375 226.656 27.1875C226.438 27.1875 226.234 27.2187 226.047 27.2812C225.859 27.375 225.656 27.4219 225.438 27.4219C225.25 27.4219 225.062 27.375 224.875 27.2812C224.688 27.2187 224.5 27.1875 224.312 27.1875C224.156 27.1562 224.016 27.1406 223.891 27.1406C223.766 27.1719 223.625 27.1875 223.469 27.1875C223.312 27.1875 223.109 27.1406 222.859 27.0469C222.609 26.9844 222.406 26.9219 222.25 26.8594C221.906 26.6719 221.641 26.5156 221.453 26.3906C221.266 26.2344 221.031 26.1562 220.75 26.1562L220.516 25.9219ZM231.953 9.79687C231.672 9.67187 231.484 9.53125 231.391 9.375C231.328 9.1875 231.25 8.98437 231.156 8.76562C231.094 8.54687 231.031 8.34375 230.969 8.15625C230.938 7.96875 230.922 7.82812 230.922 7.73437C230.797 7.54687 230.656 7.40625 230.5 7.3125C230.344 7.21875 230.188 7.125 230.031 7.03125C229.906 6.90625 229.781 6.78125 229.656 6.65625C229.531 6.53125 229.453 6.34375 229.422 6.09375C229.172 6.03125 228.953 5.92187 228.766 5.76562C228.609 5.60937 228.406 5.5 228.156 5.4375C228.156 5.28125 228.125 5.20312 228.062 5.20312C228 5.17187 227.953 5.09375 227.922 4.96875C227.484 4.90625 227.125 4.79687 226.844 4.64062C226.594 4.48437 226.297 4.32812 225.953 4.17187C225.797 4.32812 225.656 4.39062 225.531 4.35937C225.438 4.29687 225.312 4.26562 225.156 4.26562C225.031 4.26562 224.906 4.32812 224.781 4.45312C224.656 4.57812 224.516 4.67187 224.359 4.73437C224.266 4.57812 224.125 4.5 223.938 4.5C223.75 4.46875 223.578 4.42187 223.422 4.35937C223.297 4.45312 223.125 4.54687 222.906 4.64062C222.719 4.70312 222.547 4.76562 222.391 4.82812C221.797 5.07812 221.25 5.5 220.75 6.09375C220.375 6.40625 220.047 6.65625 219.766 6.84375C219.516 7 219.234 7.14062 218.922 7.26562C218.891 7.54687 218.797 7.79687 218.641 8.01562C218.484 8.23437 218.391 8.48437 218.359 8.76562C218.016 8.89062 217.75 9.17187 217.562 9.60937C217.375 10.0469 217.25 10.4219 217.188 10.7344C217.375 11.0156 217.5 11.3281 217.562 11.6719C217.625 12.0156 217.734 12.3437 217.891 12.6562C217.734 12.8125 217.594 12.9531 217.469 13.0781C217.344 13.2031 217.234 13.3594 217.141 13.5469C216.859 13.6406 216.719 13.875 216.719 14.25C216.75 14.5937 216.828 14.9844 216.953 15.4219C217.078 15.8281 217.219 16.2187 217.375 16.5937C217.562 16.9687 217.703 17.2031 217.797 17.2969C217.734 17.3906 217.672 17.4844 217.609 17.5781C217.547 17.6719 217.531 17.7656 217.562 17.8594C217.906 18.2344 218.125 18.7344 218.219 19.3594C218.344 19.4844 218.469 19.5937 218.594 19.6875C218.719 19.75 218.828 19.8281 218.922 19.9219C219.047 19.9844 219.125 20.0781 219.156 20.2031C219.219 20.3281 219.25 20.5156 219.25 20.7656C219.406 20.7656 219.516 20.7969 219.578 20.8594C219.672 20.9219 219.75 21 219.812 21.0937C219.875 21.1562 219.938 21.2344 220 21.3281C220.062 21.3906 220.172 21.4219 220.328 21.4219L220.75 21.8906C220.906 21.9844 221.047 22.0312 221.172 22.0312C221.297 22 221.391 22.1094 221.453 22.3594C221.953 22.4844 222.438 22.6406 222.906 22.8281C223.375 23.0156 223.844 23.2031 224.312 23.3906C224.562 23.2969 224.812 23.2656 225.062 23.2969C225.312 23.3281 225.562 23.3125 225.812 23.25C225.969 23.25 226.078 23.2031 226.141 23.1094C226.234 22.9844 226.359 22.9219 226.516 22.9219C226.609 22.9219 226.672 22.9844 226.703 23.1094C226.766 23.2031 226.906 23.2187 227.125 23.1562C227.188 23 227.281 22.9375 227.406 22.9687C227.562 23 227.688 22.9844 227.781 22.9219C227.969 22.8281 228.094 22.6875 228.156 22.5C228.25 22.3125 228.438 22.2187 228.719 22.2187C229 21.7812 229.344 21.4062 229.75 21.0937C230.156 20.75 230.5 20.3594 230.781 19.9219H231.25C231.344 19.4844 231.469 19.0312 231.625 18.5625C231.812 18.0625 231.875 17.5937 231.812 17.1562C231.969 16.625 232.078 16.125 232.141 15.6562C232.234 15.1875 232.281 14.7344 232.281 14.2969C232.281 14.1406 232.234 14 232.141 13.875C232.078 13.7187 232.047 13.5625 232.047 13.4062C232.047 13.25 232.062 13.0937 232.094 12.9375C232.156 12.7812 232.188 12.625 232.188 12.4687C232.188 12.0312 232.156 11.5937 232.094 11.1562C232.062 10.6875 232.016 10.2344 231.953 9.79687ZM246.156 25.9219C245.875 25.9531 245.609 25.9375 245.359 25.875C245.109 25.7812 244.844 25.7187 244.562 25.6875C244.5 25.5625 244.406 25.4375 244.281 25.3125C244.156 25.1562 244.016 25.0469 243.859 24.9844C243.359 24.7656 243.062 24.5156 242.969 24.2344C242.875 23.9531 242.609 23.7812 242.172 23.7187C242.172 23.5312 242.141 23.4062 242.078 23.3437C242.016 23.25 241.938 23.1719 241.844 23.1094C241.781 23.0469 241.703 23 241.609 22.9687C241.516 22.9062 241.422 22.8125 241.328 22.6875C241.234 22.3437 241.125 22 241 21.6562C240.875 21.3125 240.641 21.0469 240.297 20.8594C240.297 20.5156 240.281 20.2969 240.25 20.2031C240.219 20.0781 240.172 20.0156 240.109 20.0156C240.078 19.9844 240.031 19.9687 239.969 19.9687C239.938 19.9375 239.891 19.8437 239.828 19.6875C239.859 19.3437 239.781 19.0781 239.594 18.8906C239.438 18.6719 239.328 18.5156 239.266 18.4219C239.266 18.2969 239.266 18.1875 239.266 18.0937C239.297 17.9687 239.344 17.8437 239.406 17.7187C239.219 17.6562 239.094 17.5625 239.031 17.4375C239 17.2812 238.969 17.125 238.938 16.9687C238.906 16.8125 238.875 16.6562 238.844 16.5C238.812 16.3437 238.719 16.2187 238.562 16.125C238.625 15.7187 238.656 15.3125 238.656 14.9062C238.688 14.4687 238.578 14.0781 238.328 13.7344C238.609 13.3594 238.75 12.9531 238.75 12.5156C238.781 12.0469 238.875 11.5937 239.031 11.1562C239.031 11 238.984 10.8594 238.891 10.7344C238.828 10.5781 238.766 10.4219 238.703 10.2656C238.953 10.2031 239.062 10.0312 239.031 9.75C239.031 9.46875 239.031 9.21875 239.031 9C239.156 8.75 239.281 8.53125 239.406 8.34375C239.531 8.15625 239.641 7.98437 239.734 7.82812C239.828 7.64062 239.906 7.45312 239.969 7.26562C240.031 7.04687 240.062 6.78125 240.062 6.46875C240.312 6.3125 240.531 6.125 240.719 5.90625C240.906 5.6875 241.094 5.46875 241.281 5.25C241.469 5 241.656 4.78125 241.844 4.59375C242.031 4.375 242.25 4.1875 242.5 4.03125C242.594 3.875 242.688 3.76562 242.781 3.70312C242.906 3.60937 243 3.45312 243.062 3.23437C243.375 3.14062 243.656 3 243.906 2.8125C244.188 2.625 244.453 2.45312 244.703 2.29687C245.141 2.01562 245.625 1.78125 246.156 1.59375C246.719 1.375 247.266 1.23437 247.797 1.17187C247.891 1.07812 248 1 248.125 0.9375C248.25 0.875 248.375 0.796875 248.5 0.703125C248.656 0.671875 248.797 0.671875 248.922 0.703125C249.078 0.703125 249.203 0.703125 249.297 0.703125C249.391 0.671875 249.484 0.625 249.578 0.5625C249.672 0.5 249.75 0.359375 249.812 0.140625L250.094 0.703125C250.312 0.734375 250.484 0.765625 250.609 0.796875C250.734 0.796875 250.875 0.6875 251.031 0.46875C251.406 0.5625 251.781 0.625 252.156 0.65625C252.531 0.6875 252.906 0.734375 253.281 0.796875C253.594 1.07812 253.766 1.26562 253.797 1.35937C253.859 1.42187 253.922 1.51562 253.984 1.64062C254.234 1.67187 254.438 1.76562 254.594 1.92187C254.75 2.04687 254.969 2.10937 255.25 2.10937C255.344 2.35937 255.484 2.51562 255.672 2.57812C255.891 2.60937 256.031 2.75 256.094 3C256.312 3.03125 256.531 3.10937 256.75 3.23437C256.938 3.60937 257.188 3.90625 257.5 4.125C257.844 4.34375 258.094 4.65625 258.25 5.0625C258.438 5.15625 258.578 5.28125 258.672 5.4375C258.797 5.5625 258.906 5.70312 259 5.85937C259.125 5.98437 259.234 6.125 259.328 6.28125C259.453 6.40625 259.609 6.5 259.797 6.5625C259.797 6.71875 259.766 6.84375 259.703 6.9375C259.641 7 259.625 7.07812 259.656 7.17187C259.844 7.23437 259.953 7.34375 259.984 7.5C260.047 7.65625 260.094 7.8125 260.125 7.96875C260.188 8.125 260.25 8.28125 260.312 8.4375C260.406 8.5625 260.562 8.64062 260.781 8.67187C260.781 8.95312 260.797 9.17187 260.828 9.32812C260.859 9.45312 260.922 9.64062 261.016 9.89062C261.172 10.2031 261.25 10.5156 261.25 10.8281C261.281 11.1094 261.328 11.4219 261.391 11.7656C261.391 11.8594 261.422 11.9375 261.484 12C261.578 12.0625 261.656 12.125 261.719 12.1875C261.656 12.4375 261.656 12.6875 261.719 12.9375C261.781 13.1875 261.812 13.4375 261.812 13.6875C261.812 13.8437 261.766 13.9531 261.672 14.0156C261.578 14.0469 261.531 14.0937 261.531 14.1562C261.562 14.2187 261.641 14.2969 261.766 14.3906C261.922 14.4531 262.031 14.5156 262.094 14.5781C261.875 14.6406 261.734 14.7656 261.672 14.9531C261.641 15.1094 261.625 15.2969 261.625 15.5156C261.625 15.7031 261.625 15.9062 261.625 16.125C261.656 16.3437 261.656 16.5312 261.625 16.6875C261.594 16.8125 261.547 16.9062 261.484 16.9687C261.422 17.0312 261.391 17.125 261.391 17.25C261.453 17.5937 261.453 17.7969 261.391 17.8594C261.328 17.9219 261.281 18 261.25 18.0937C261.219 18.25 261.203 18.3906 261.203 18.5156C261.234 18.6406 261.25 18.7812 261.25 18.9375C261.25 19.1875 261.188 19.3906 261.062 19.5469C260.969 19.7031 260.844 19.875 260.688 20.0625C260.656 20.2187 260.672 20.3281 260.734 20.3906C260.828 20.4531 260.844 20.5625 260.781 20.7187C260.531 21.125 260.297 21.5312 260.078 21.9375C259.859 22.3125 259.641 22.7187 259.422 23.1562C259.266 23.4062 259.078 23.5937 258.859 23.7187C258.672 23.8437 258.516 24.0781 258.391 24.4219C258.078 24.4844 257.75 24.625 257.406 24.8437C257.094 25.0312 256.781 25.2344 256.469 25.4531C256.188 25.6719 255.938 25.875 255.719 26.0625C255.5 26.25 255.375 26.3437 255.344 26.3437C255.125 26.375 254.969 26.4375 254.875 26.5312C254.781 26.5937 254.609 26.625 254.359 26.625C254.203 26.5937 254.094 26.6719 254.031 26.8594C253.969 27.0469 253.797 27.1719 253.516 27.2344C253.109 27.3906 252.844 27.4687 252.719 27.4687C252.594 27.4687 252.453 27.375 252.297 27.1875C252.078 27.1875 251.875 27.2187 251.688 27.2812C251.5 27.375 251.297 27.4219 251.078 27.4219C250.891 27.4219 250.703 27.375 250.516 27.2812C250.328 27.2187 250.141 27.1875 249.953 27.1875C249.797 27.1562 249.656 27.1406 249.531 27.1406C249.406 27.1719 249.266 27.1875 249.109 27.1875C248.953 27.1875 248.75 27.1406 248.5 27.0469C248.25 26.9844 248.047 26.9219 247.891 26.8594C247.547 26.6719 247.281 26.5156 247.094 26.3906C246.906 26.2344 246.672 26.1562 246.391 26.1562L246.156 25.9219ZM257.594 9.79687C257.312 9.67187 257.125 9.53125 257.031 9.375C256.969 9.1875 256.891 8.98437 256.797 8.76562C256.734 8.54687 256.672 8.34375 256.609 8.15625C256.578 7.96875 256.562 7.82812 256.562 7.73437C256.438 7.54687 256.297 7.40625 256.141 7.3125C255.984 7.21875 255.828 7.125 255.672 7.03125C255.547 6.90625 255.422 6.78125 255.297 6.65625C255.172 6.53125 255.094 6.34375 255.062 6.09375C254.812 6.03125 254.594 5.92187 254.406 5.76562C254.25 5.60937 254.047 5.5 253.797 5.4375C253.797 5.28125 253.766 5.20312 253.703 5.20312C253.641 5.17187 253.594 5.09375 253.562 4.96875C253.125 4.90625 252.766 4.79687 252.484 4.64062C252.234 4.48437 251.938 4.32812 251.594 4.17187C251.438 4.32812 251.297 4.39062 251.172 4.35937C251.078 4.29687 250.953 4.26562 250.797 4.26562C250.672 4.26562 250.547 4.32812 250.422 4.45312C250.297 4.57812 250.156 4.67187 250 4.73437C249.906 4.57812 249.766 4.5 249.578 4.5C249.391 4.46875 249.219 4.42187 249.062 4.35937C248.938 4.45312 248.766 4.54687 248.547 4.64062C248.359 4.70312 248.188 4.76562 248.031 4.82812C247.438 5.07812 246.891 5.5 246.391 6.09375C246.016 6.40625 245.688 6.65625 245.406 6.84375C245.156 7 244.875 7.14062 244.562 7.26562C244.531 7.54687 244.438 7.79687 244.281 8.01562C244.125 8.23437 244.031 8.48437 244 8.76562C243.656 8.89062 243.391 9.17187 243.203 9.60937C243.016 10.0469 242.891 10.4219 242.828 10.7344C243.016 11.0156 243.141 11.3281 243.203 11.6719C243.266 12.0156 243.375 12.3437 243.531 12.6562C243.375 12.8125 243.234 12.9531 243.109 13.0781C242.984 13.2031 242.875 13.3594 242.781 13.5469C242.5 13.6406 242.359 13.875 242.359 14.25C242.391 14.5937 242.469 14.9844 242.594 15.4219C242.719 15.8281 242.859 16.2187 243.016 16.5937C243.203 16.9687 243.344 17.2031 243.438 17.2969C243.375 17.3906 243.312 17.4844 243.25 17.5781C243.188 17.6719 243.172 17.7656 243.203 17.8594C243.547 18.2344 243.766 18.7344 243.859 19.3594C243.984 19.4844 244.109 19.5937 244.234 19.6875C244.359 19.75 244.469 19.8281 244.562 19.9219C244.688 19.9844 244.766 20.0781 244.797 20.2031C244.859 20.3281 244.891 20.5156 244.891 20.7656C245.047 20.7656 245.156 20.7969 245.219 20.8594C245.312 20.9219 245.391 21 245.453 21.0937C245.516 21.1562 245.578 21.2344 245.641 21.3281C245.703 21.3906 245.812 21.4219 245.969 21.4219L246.391 21.8906C246.547 21.9844 246.688 22.0312 246.812 22.0312C246.938 22 247.031 22.1094 247.094 22.3594C247.594 22.4844 248.078 22.6406 248.547 22.8281C249.016 23.0156 249.484 23.2031 249.953 23.3906C250.203 23.2969 250.453 23.2656 250.703 23.2969C250.953 23.3281 251.203 23.3125 251.453 23.25C251.609 23.25 251.719 23.2031 251.781 23.1094C251.875 22.9844 252 22.9219 252.156 22.9219C252.25 22.9219 252.312 22.9844 252.344 23.1094C252.406 23.2031 252.547 23.2187 252.766 23.1562C252.828 23 252.922 22.9375 253.047 22.9687C253.203 23 253.328 22.9844 253.422 22.9219C253.609 22.8281 253.734 22.6875 253.797 22.5C253.891 22.3125 254.078 22.2187 254.359 22.2187C254.641 21.7812 254.984 21.4062 255.391 21.0937C255.797 20.75 256.141 20.3594 256.422 19.9219H256.891C256.984 19.4844 257.109 19.0312 257.266 18.5625C257.453 18.0625 257.516 17.5937 257.453 17.1562C257.609 16.625 257.719 16.125 257.781 15.6562C257.875 15.1875 257.922 14.7344 257.922 14.2969C257.922 14.1406 257.875 14 257.781 13.875C257.719 13.7187 257.688 13.5625 257.688 13.4062C257.688 13.25 257.703 13.0937 257.734 12.9375C257.797 12.7812 257.828 12.625 257.828 12.4687C257.828 12.0312 257.797 11.5937 257.734 11.1562C257.703 10.6875 257.656 10.2344 257.594 9.79687ZM284.172 23.2031C284.078 23.3594 283.953 23.5 283.797 23.625C283.672 23.75 283.562 23.8906 283.469 24.0469C283.562 24.2344 283.594 24.4062 283.562 24.5625C283.562 24.7187 283.547 24.9062 283.516 25.125C283.328 25.2187 283.156 25.3437 283 25.5C282.844 25.6562 282.656 25.6562 282.438 25.5C282.219 25.75 281.875 25.8906 281.406 25.9219C280.969 25.9531 280.609 25.9062 280.328 25.7812C280.234 25.8437 280.141 25.9219 280.047 26.0156C279.953 26.0781 279.844 26.1406 279.719 26.2031C279.531 26.2344 279.406 26.3281 279.344 26.4844C279.125 26.5469 278.906 26.5625 278.688 26.5312C278.469 26.5 278.25 26.4844 278.031 26.4844C277.5 26.5469 277.141 26.5312 276.953 26.4375C276.797 26.3125 276.562 26.3281 276.25 26.4844C276 26.4219 275.797 26.2969 275.641 26.1094C275.422 26.1406 275.281 26.2031 275.219 26.2969C275.156 26.3594 275.047 26.4219 274.891 26.4844C274.641 26.4531 274.375 26.4219 274.094 26.3906C273.844 26.3594 273.594 26.3437 273.344 26.3437C273.125 26.3437 272.938 26.3906 272.781 26.4844C272.625 26.5781 272.516 26.625 272.453 26.625C271.984 26.5312 271.641 26.5312 271.422 26.625C271.203 26.6875 270.984 26.75 270.766 26.8125C270.609 26.875 270.375 26.9062 270.062 26.9062C269.969 26.9375 269.859 26.9687 269.734 27C269.641 27.0312 269.547 27.0937 269.453 27.1875C269.266 27.125 269.016 27.0781 268.703 27.0469C268.391 27.0156 268.234 27.1719 268.234 27.5156C268.141 27.3906 268.078 27.2656 268.047 27.1406C268.047 27.0469 267.938 27.0156 267.719 27.0469C267.5 26.7656 267.344 26.6406 267.25 26.6719C267.156 26.7031 267.078 26.6875 267.016 26.625C266.953 26.4687 266.906 26.3594 266.875 26.2969C266.844 26.2031 266.75 26.125 266.594 26.0625C266.469 25.9062 266.344 25.7812 266.219 25.6875C266.094 25.5625 265.984 25.4219 265.891 25.2656C265.859 25.1094 265.875 25 265.938 24.9375C266.031 24.8437 266.109 24.7187 266.172 24.5625C266.047 24.5 265.969 24.4375 265.938 24.375C265.906 24.2812 265.859 24.1562 265.797 24C265.797 23.8437 265.828 23.7031 265.891 23.5781C265.984 23.4219 266.078 23.2656 266.172 23.1094C266.047 22.9531 266 22.8125 266.031 22.6875C266.094 22.5312 266.125 22.375 266.125 22.2187C266.125 21.9375 266.078 21.6719 265.984 21.4219C265.922 21.1719 265.891 20.9219 265.891 20.6719C265.891 20.4219 265.906 20.1562 265.938 19.875C266 19.5937 265.906 19.375 265.656 19.2187C265.75 18.7812 265.75 18.3437 265.656 17.9062C265.562 17.4687 265.609 17.0469 265.797 16.6406C265.766 16.4531 265.703 16.3125 265.609 16.2187C265.547 16.0937 265.484 15.9531 265.422 15.7969C265.484 15.6094 265.5 15.4219 265.469 15.2344C265.469 15.0156 265.453 14.8125 265.422 14.625C265.422 14.4375 265.422 14.25 265.422 14.0625C265.422 13.8437 265.469 13.6406 265.562 13.4531C265.469 13.2656 265.391 13.0469 265.328 12.7969C265.297 12.5156 265.266 12.2187 265.234 11.9062C265.234 11.5937 265.25 11.3125 265.281 11.0625C265.312 10.7812 265.359 10.5469 265.422 10.3594C265.453 10.1719 265.438 10.0625 265.375 10.0312C265.312 10 265.25 9.90625 265.188 9.75C265.25 9.53125 265.281 9.3125 265.281 9.09375C265.281 8.875 265.344 8.67187 265.469 8.48437C265.312 8.23437 265.234 7.95312 265.234 7.64062C265.266 7.32812 265.297 7.01562 265.328 6.70312C265.391 6.35937 265.422 6.03125 265.422 5.71875C265.453 5.375 265.375 5.04687 265.188 4.73437C265.188 4.51562 265.25 4.375 265.375 4.3125C265.5 4.21875 265.562 4.09375 265.562 3.9375V3C265.656 2.96875 265.734 2.92187 265.797 2.85937C265.859 2.76562 265.922 2.6875 265.984 2.625C266.141 2.46875 266.297 2.39062 266.453 2.39062C266.609 2.35937 266.781 2.21875 266.969 1.96875C267.375 1.875 267.578 1.875 267.578 1.96875C267.609 2.0625 267.703 2.1875 267.859 2.34375C268.016 2.28125 268.141 2.26562 268.234 2.29687C268.328 2.32812 268.453 2.375 268.609 2.4375C268.766 2.71875 268.984 3.09375 269.266 3.5625C269.578 4.03125 269.734 4.42187 269.734 4.73437C269.734 4.82812 269.672 4.92187 269.547 5.01562C269.422 5.10937 269.328 5.20312 269.266 5.29687C269.266 5.42187 269.266 5.53125 269.266 5.625C269.266 5.6875 269.234 5.76562 269.172 5.85937C269.141 6.07812 269.156 6.21875 269.219 6.28125C269.312 6.34375 269.375 6.45312 269.406 6.60937C269.156 6.76562 269.062 6.9375 269.125 7.125C269.219 7.28125 269.266 7.46875 269.266 7.6875C269.266 7.875 269.219 8.04687 269.125 8.20312C269.062 8.32812 269.141 8.46875 269.359 8.625C269.141 8.78125 269.109 8.98437 269.266 9.23437C269.234 9.42187 269.203 9.60937 269.172 9.79687C269.172 9.98437 269.172 10.1875 269.172 10.4062C269.172 10.5625 269.203 10.6875 269.266 10.7812C269.359 10.875 269.406 10.9687 269.406 11.0625C269.406 11.125 269.375 11.2031 269.312 11.2969C269.281 11.3594 269.266 11.4375 269.266 11.5312C269.266 11.625 269.281 11.7187 269.312 11.8125C269.375 11.875 269.406 11.9531 269.406 12.0469C269.406 12.1094 269.359 12.2031 269.266 12.3281C269.203 12.4219 269.172 12.5312 269.172 12.6562C269.172 12.9062 269.203 13.1875 269.266 13.5C269.328 13.7812 269.438 14.0469 269.594 14.2969C269.438 14.5156 269.406 14.7344 269.5 14.9531C269.594 15.1406 269.562 15.2812 269.406 15.375C269.312 15.5625 269.328 15.6875 269.453 15.75C269.578 15.7812 269.641 15.8437 269.641 15.9375C269.641 16.0312 269.609 16.125 269.547 16.2187C269.516 16.2812 269.5 16.3594 269.5 16.4531C269.5 16.6719 269.531 16.8906 269.594 17.1094C269.656 17.2969 269.578 17.4687 269.359 17.625C269.547 18.0937 269.703 18.625 269.828 19.2187C269.984 19.7812 270.031 20.3281 269.969 20.8594C270.156 20.9219 270.25 21.0469 270.25 21.2344C270.25 21.4219 270.359 21.5469 270.578 21.6094C270.547 21.7656 270.5 21.875 270.438 21.9375C270.406 22 270.469 22.1094 270.625 22.2656C271.219 22.5156 271.812 22.5781 272.406 22.4531C273 22.3281 273.609 22.2656 274.234 22.2656C274.547 22.2656 274.75 22.2969 274.844 22.3594C274.969 22.3906 275.047 22.4531 275.078 22.5469C275.141 22.6094 275.188 22.6719 275.219 22.7344C275.25 22.7656 275.359 22.7812 275.547 22.7812C276.234 22.5625 276.828 22.5 277.328 22.5937C277.828 22.6562 278.266 22.5937 278.641 22.4062C278.734 22.4062 278.828 22.4531 278.922 22.5469C279.016 22.6094 279.125 22.6562 279.25 22.6875C279.438 22.4062 279.688 22.2656 280 22.2656C280.344 22.2344 280.641 22.0937 280.891 21.8437C281.141 21.8125 281.391 21.8125 281.641 21.8437C281.891 21.7187 282.156 21.6406 282.438 21.6094C282.719 21.5469 283 21.4687 283.281 21.375C283.625 21.5312 283.844 21.7969 283.938 22.1719C284.062 22.5156 284.141 22.8594 284.172 23.2031Z" fill="white"/>
</svg>
